<?xml version="1.0" standalone="no"?>
<!DOCTYPE svg PUBLIC "-//W3C//DTD SVG 20010904//EN"
 "http://www.w3.org/TR/2001/REC-SVG-20010904/DTD/svg10.dtd">
<svg version="1.0" xmlns="http://www.w3.org/2000/svg"
 width="1600.000000pt" height="1562.000000pt" viewBox="0 0 1600.000000 1562.000000"
 preserveAspectRatio="xMidYMid meet">

<g transform="translate(0.000000,1562.000000) scale(0.100000,-0.100000)"
fill="#000000" stroke="none">
<path d="M0 7810 l0 -7810 8000 0 8000 0 0 7810 0 7810 -8000 0 -8000 0 0
-7810z m9710 4640 c499 -34 910 -148 1357 -377 333 -170 683 -423 683 -493 -1
-36 -35 -107 -58 -119 -36 -19 -59 -12 -204 62 -438 225 -964 373 -1583 443
-208 24 -613 24 -785 1 -587 -82 -1083 -291 -1520 -642 -210 -169 -432 -383
-609 -589 -86 -99 -122 -211 -85 -264 55 -79 201 -64 259 28 14 23 29 49 32
58 11 30 145 245 201 320 233 318 664 612 1147 781 511 180 1032 198 1665 60
645 -141 1252 -404 1612 -697 94 -76 118 -106 118 -144 0 -37 -40 -77 -77 -80
-50 -2 -59 1 -189 63 -549 261 -999 389 -1509 430 -163 13 -528 7 -680 -11
-278 -32 -585 -109 -740 -185 -104 -51 -258 -152 -360 -235 -89 -74 -201 -187
-192 -196 3 -4 37 16 74 43 287 211 791 388 1278 448 171 22 490 22 650 0 563
-75 1158 -352 1615 -751 214 -186 284 -282 258 -354 -5 -17 -18 -35 -28 -40
-39 -21 -67 -10 -150 56 -188 152 -559 359 -801 448 -488 179 -1012 229 -1369
129 -74 -21 -323 -113 -334 -124 -20 -18 3 -18 102 1 207 40 351 54 572 54
231 0 347 -13 538 -59 184 -44 436 -157 462 -205 16 -29 12 -72 -10 -108 -32
-53 -53 -57 -167 -33 -161 33 -365 45 -557 32 -234 -16 -481 -61 -475 -86 1
-5 27 -19 58 -31 114 -41 194 -104 466 -364 200 -192 268 -230 404 -230 97 0
169 21 342 100 170 78 224 94 314 88 128 -8 254 -99 313 -226 24 -51 27 -69
27 -162 -1 -86 -5 -116 -24 -163 -28 -71 -90 -164 -186 -277 -147 -174 -185
-253 -192 -400 -7 -139 19 -224 123 -397 23 -39 12 -66 -30 -71 -20 -3 -38 6
-68 33 -22 21 -66 49 -97 64 -51 24 -67 26 -181 26 l-125 -1 -125 -48 c-107
-42 -136 -49 -200 -50 -214 -3 -289 129 -224 394 75 306 7 611 -211 939 -174
263 -378 468 -602 605 -46 29 -69 37 -87 32 -14 -3 -74 -36 -133 -72 -59 -36
-122 -68 -140 -71 -52 -9 -99 5 -132 39 -29 30 -31 30 -75 19 -68 -17 -99 -14
-141 15 -36 24 -39 24 -70 10 -51 -24 -101 -20 -160 14 l-53 31 -16 -55 c-31
-105 -104 -154 -182 -121 -20 8 -39 13 -42 11 -2 -3 1 -25 7 -50 16 -65 14
-101 -10 -147 -25 -51 -74 -74 -137 -65 -46 6 -117 43 -147 76 -22 24 -50 27
-41 4 3 -9 11 -48 17 -86 41 -263 -148 -449 -349 -344 -152 78 -335 337 -387
548 -19 74 -51 114 -83 104 -37 -12 -43 -97 -12 -148 11 -18 20 -51 20 -72 0
-34 -7 -46 -54 -92 -30 -29 -64 -70 -75 -92 -32 -63 -60 -178 -71 -291 -10
-110 -27 -152 -67 -170 -14 -6 -82 -11 -161 -10 -76 0 -149 -4 -165 -10 -64
-25 -136 -3 -155 46 -6 15 -14 50 -17 77 -18 135 -92 298 -178 392 -80 87
-162 128 -261 128 -68 1 -75 -1 -163 -52 -106 -62 -157 -77 -212 -62 -56 15
-92 59 -112 137 -11 45 -22 67 -31 66 -7 -1 -36 -9 -65 -17 -65 -18 -115 -7
-160 37 -39 37 -56 83 -56 151 1 90 40 163 162 305 89 103 117 159 102 204
-28 84 -212 259 -403 384 -253 166 -568 265 -790 249 l-90 -6 -34 34 c-27 27
-34 42 -34 72 1 49 19 72 99 123 116 74 300 131 520 161 50 7 94 16 96 20 3 4
0 32 -7 61 -15 75 2 131 56 185 34 34 58 47 131 70 90 27 91 27 390 28 195 0
329 -4 382 -12 328 -51 488 -166 544 -392 18 -70 16 -269 -4 -373 -8 -43 -11
-80 -6 -82 4 -3 24 19 45 47 312 434 486 615 824 854 299 213 597 372 886 474
412 145 1059 224 1564 190z m2506 -3531 c29 -16 74 -55 100 -85 26 -30 52 -54
58 -54 7 0 28 16 47 36 45 47 79 64 130 64 53 0 95 -28 138 -89 35 -53 38 -84
16 -175 -22 -93 -63 -283 -77 -361 -7 -38 -13 -137 -13 -220 0 -178 9 -216 94
-414 33 -75 65 -163 71 -196 26 -128 -11 -248 -102 -330 -66 -59 -98 -75 -249
-125 -156 -52 -215 -81 -273 -131 -120 -106 -174 -361 -131 -626 19 -116 42
-179 106 -284 104 -173 123 -223 140 -369 6 -53 17 -106 26 -120 9 -13 49 -56
88 -95 47 -46 81 -90 98 -127 62 -132 77 -306 40 -443 -13 -44 -30 -116 -39
-160 -11 -54 -34 -113 -70 -183 -37 -71 -52 -111 -48 -127 8 -32 -37 -80 -94
-100 -26 -10 -92 -19 -149 -22 -123 -7 -156 3 -297 87 -136 80 -224 118 -289
126 -85 10 -116 -6 -205 -102 -42 -47 -106 -105 -142 -129 -77 -51 -95 -70
-141 -149 -75 -129 -211 -200 -447 -234 -103 -15 -118 -15 -190 0 -42 8 -138
38 -212 66 -166 62 -229 76 -346 76 -80 0 -98 -4 -155 -31 -39 -19 -97 -60
-148 -107 -93 -85 -181 -133 -257 -142 -63 -8 -113 7 -175 52 -26 19 -51 34
-57 34 -5 0 -36 -13 -67 -30 -65 -34 -131 -40 -169 -15 -38 25 -49 66 -42 144
10 102 -5 131 -133 249 -402 372 -844 669 -1144 766 -150 49 -230 61 -417 60
-241 -1 -359 -33 -564 -152 -130 -76 -188 -96 -265 -90 -113 8 -212 99 -253
232 -18 60 -20 85 -16 208 6 166 17 191 85 196 38 3 43 0 70 -40 53 -79 109
-56 174 74 48 95 108 100 153 13 49 -94 177 -78 346 44 285 207 374 246 550
244 151 -1 241 -34 426 -154 119 -77 267 -149 279 -137 4 3 -9 37 -29 75 -82
164 -142 331 -187 523 -20 83 -23 123 -23 325 -1 185 2 246 17 310 61 275 260
751 407 975 216 328 520 570 792 632 78 18 270 15 346 -5 89 -24 191 -68 307
-133 384 -216 452 -234 705 -190 80 14 195 35 255 45 371 66 699 7 865 -155
20 -19 39 -34 43 -34 3 0 17 19 29 43 20 37 23 56 22 152 0 118 -7 147 -61
267 -57 129 -55 214 6 272 40 38 95 44 156 17 26 -11 51 -21 54 -21 24 0 59
127 81 289 12 92 25 124 62 158 46 43 99 62 172 63 59 0 76 -4 122 -31z"/>
<path d="M10738 7490 c-111 -14 -112 -20 -8 -75 216 -115 352 -313 379 -555 8
-71 12 -83 49 -127 22 -26 49 -66 60 -88 l21 -40 0 30 c1 39 -19 112 -57 205
-59 149 -71 279 -30 352 27 50 65 74 138 88 62 12 80 24 80 54 -1 53 -69 112
-164 143 -59 19 -354 27 -468 13z"/>
<path d="M9277 7423 c-30 -63 -32 -76 -32 -173 0 -132 26 -219 99 -327 62 -94
89 -108 48 -27 -85 168 -107 359 -66 562 11 56 -15 37 -49 -35z"/>
<path d="M8762 7317 c-12 -26 -29 -84 -38 -128 -13 -67 -14 -94 -5 -157 22
-150 139 -330 253 -388 28 -14 48 -20 48 -13 0 6 -15 37 -34 68 -110 182 -167
351 -190 556 l-13 110 -21 -48z"/>
<path d="M9959 7249 c-79 -12 -129 -47 -110 -78 6 -9 20 -9 61 0 76 16 129 6
226 -46 74 -39 94 -45 145 -45 97 0 195 60 187 114 -4 27 -63 66 -100 66 -17
0 -55 -7 -86 -16 -56 -17 -125 -15 -232 4 -25 4 -66 5 -91 1z"/>
<path d="M10814 6628 c-8 -25 -8 -151 0 -176 3 -10 21 -26 38 -36 18 -10 54
-36 80 -57 55 -46 67 -49 42 -11 -68 103 -75 119 -83 195 -5 43 -14 84 -21 92
-18 22 -48 18 -56 -7z"/>
<path d="M10467 6613 c-3 -10 -5 -65 -5 -123 -1 -85 -7 -128 -32 -225 -45
-173 -86 -252 -184 -351 -161 -161 -357 -214 -513 -138 -68 33 -146 118 -170
186 -23 67 -23 198 -1 249 22 50 82 115 135 146 23 13 43 28 43 33 0 4 -16 25
-35 46 -18 22 -42 56 -51 77 l-17 37 -77 0 c-91 0 -212 -29 -274 -65 -64 -37
-120 -103 -147 -171 -34 -87 -33 -225 3 -311 39 -92 93 -169 183 -258 184
-182 415 -265 657 -235 328 40 580 249 676 560 42 140 38 223 -19 372 -25 65
-43 94 -85 135 -55 55 -79 65 -87 36z"/>
<path d="M8485 6598 c-29 -82 -34 -262 -9 -335 52 -154 175 -212 315 -150 62
27 159 112 143 125 -5 5 -30 16 -56 26 -114 42 -255 162 -333 284 -40 63 -52
72 -60 50z"/>
<path d="M9843 6150 c-61 -37 -49 -110 20 -128 109 -29 181 100 76 137 -44 15
-59 14 -96 -9z"/>
<path d="M8380 5815 c0 -25 105 -226 170 -324 130 -199 277 -287 413 -247 98
29 130 92 128 256 -1 58 -5 123 -9 145 -7 37 -10 40 -37 37 -17 -2 -87 -5
-156 -8 -108 -5 -139 -3 -210 15 -91 23 -214 77 -266 117 -27 20 -33 22 -33 9z"/>
<path d="M10630 5527 c0 -3 24 -19 53 -35 29 -17 79 -54 112 -83 48 -45 57
-49 51 -29 -11 35 -56 100 -88 123 -24 18 -128 37 -128 24z"/>
<path d="M9327 5340 c-5 -177 -18 -237 -77 -356 -42 -85 -144 -207 -214 -255
-20 -13 -36 -29 -36 -35 0 -17 136 -27 193 -14 202 45 323 255 289 501 -13 91
-67 216 -120 279 l-29 35 -6 -155z"/>
<path d="M10200 5311 c0 -4 17 -20 38 -33 111 -75 228 -209 290 -334 31 -62
72 -198 72 -240 0 -40 18 -35 34 8 37 104 28 216 -27 328 -57 116 -171 208
-323 260 -62 22 -84 25 -84 11z"/>
<path d="M9785 5263 c45 -117 58 -174 62 -288 5 -124 -4 -188 -43 -287 -21
-56 -13 -72 47 -90 30 -8 48 -8 79 1 36 11 41 16 54 62 23 76 31 215 17 295
-21 120 -91 244 -169 297 -44 31 -57 34 -47 10z"/>
<path d="M10199 5008 c34 -99 35 -108 36 -253 0 -119 -4 -163 -19 -213 -10
-34 -16 -65 -14 -68 10 -9 69 48 88 85 32 64 52 161 48 237 -3 57 -10 85 -40
145 -34 68 -110 169 -127 169 -4 0 9 -46 28 -102z"/>
</g>
</svg>
