<?xml version="1.0" standalone="no"?>
<!DOCTYPE svg PUBLIC "-//W3C//DTD SVG 20010904//EN"
 "http://www.w3.org/TR/2001/REC-SVG-20010904/DTD/svg10.dtd">
<svg version="1.0" xmlns="http://www.w3.org/2000/svg"
 width="1600.000000pt" height="1562.000000pt" viewBox="0 0 1600.000000 1562.000000"
 preserveAspectRatio="xMidYMid meet">

<g transform="translate(0.000000,1562.000000) scale(0.100000,-0.100000)"
fill="#000000" stroke="none">
<path d="M0 7810 l0 -7810 8000 0 8000 0 0 7810 0 7810 -8000 0 -8000 0 0
-7810z m10468 5015 c405 -62 941 -319 1392 -669 138 -107 350 -318 438 -436
276 -372 386 -799 369 -1434 -11 -395 -47 -649 -181 -1276 -110 -519 -134
-686 -156 -1125 -16 -313 -42 -530 -86 -710 -39 -159 -64 -427 -94 -980 -18
-328 -43 -534 -74 -622 -47 -134 -209 -299 -387 -397 -114 -63 -190 -84 -565
-155 -334 -65 -538 -127 -1059 -323 -930 -351 -1351 -459 -2370 -609 -474 -69
-750 -119 -940 -169 -199 -53 -368 -90 -480 -104 -60 -8 -153 -23 -205 -33
-66 -12 -141 -17 -245 -17 -135 1 -162 4 -270 33 -66 17 -126 31 -132 31 -7 0
-55 -51 -106 -113 -147 -175 -224 -239 -362 -299 -88 -39 -171 -52 -283 -45
-247 14 -489 162 -677 413 -104 137 -149 269 -160 464 -14 245 -57 375 -202
609 -118 190 -141 240 -252 533 -111 294 -109 444 8 522 24 16 92 44 150 62
58 18 165 53 236 79 186 65 277 87 370 87 109 0 181 -28 251 -96 73 -71 85
-117 77 -284 -7 -145 -2 -168 72 -352 68 -169 77 -256 34 -342 -31 -61 -82
-94 -217 -139 -135 -45 -154 -65 -56 -62 330 9 337 9 384 -16 136 -71 205
-210 203 -411 0 -88 -5 -115 -26 -168 -76 -186 -191 -257 -439 -271 -125 -7
-141 -10 -163 -31 -68 -64 -28 -167 106 -275 37 -30 84 -65 104 -76 83 -49
250 -72 352 -49 57 13 158 74 222 134 30 28 111 121 181 206 172 208 267 299
430 407 137 91 297 169 505 244 297 108 336 125 539 225 65 32 125 68 132 79
12 18 10 37 -11 130 -14 61 -34 139 -46 175 -24 75 -103 231 -145 285 l-29 37
-65 -6 c-93 -7 -285 -58 -355 -94 -85 -43 -118 -82 -155 -182 -60 -163 -123
-228 -275 -282 -124 -44 -252 -62 -450 -63 -160 0 -188 3 -252 23 -139 43
-199 115 -215 255 -6 58 -16 93 -34 122 -14 22 -40 64 -59 93 -43 68 -50 115
-34 214 10 63 10 84 0 99 -103 166 -104 277 -5 369 51 47 111 76 235 114 46
15 93 33 103 41 18 14 11 15 -75 15 -70 0 -104 5 -135 19 -142 64 -111 231 56
303 119 51 253 82 365 82 85 1 95 -1 165 -36 41 -20 103 -62 138 -92 35 -31
78 -67 96 -81 72 -55 258 -94 285 -61 17 21 10 28 -54 51 -78 28 -185 143
-260 280 -107 195 -217 283 -440 350 -198 59 -313 135 -365 239 -58 116 -34
208 75 280 l59 40 -34 25 c-128 98 -169 159 -170 249 0 97 56 175 180 250 36
21 66 46 68 54 3 14 -68 60 -133 85 -51 20 -145 16 -189 -8 -74 -40 -108 -74
-192 -201 -46 -69 -99 -139 -117 -154 -99 -84 -251 -102 -390 -45 -43 17 -98
44 -122 61 -63 43 -131 124 -168 200 -53 108 -53 108 -258 15 -96 -43 -223
-103 -284 -132 -192 -95 -223 -106 -257 -92 -39 16 -58 46 -58 91 0 52 20 67
200 155 408 198 680 310 1225 505 613 219 1028 291 1200 208 53 -26 81 -58 96
-112 14 -52 5 -85 -47 -190 -26 -53 -40 -89 -34 -93 6 -4 41 8 78 25 83 39
174 50 219 27 107 -56 123 -173 54 -412 -42 -145 -43 -157 -21 -256 11 -49 20
-102 20 -119 0 -45 -32 -127 -79 -205 -59 -99 -57 -105 32 -105 99 0 143 -26
183 -109 23 -47 20 -137 -7 -197 -28 -63 -59 -179 -59 -218 0 -68 62 -124 123
-112 57 11 215 100 390 217 343 230 501 308 867 429 675 222 1099 216 1492
-22 114 -68 174 -116 298 -235 136 -129 216 -172 235 -125 4 9 10 100 12 202
7 263 -26 470 -114 723 -113 327 -254 560 -592 982 -276 345 -411 607 -483
935 -20 91 -23 133 -23 315 0 190 3 224 29 355 35 180 52 240 133 460 77 211
88 239 131 310 19 30 52 89 74 130 124 230 162 292 242 405 178 250 355 430
592 601 199 144 283 194 439 259 268 111 500 146 733 110z"/>
<path d="M10318 12600 c-208 -38 -364 -161 -543 -430 -185 -279 -313 -552
-438 -935 -156 -478 -204 -721 -214 -1075 -10 -373 32 -555 217 -950 159 -338
203 -441 303 -707 136 -358 187 -591 187 -842 0 -175 -22 -313 -82 -519 -17
-57 -28 -106 -25 -108 8 -8 72 113 100 191 64 171 107 367 142 639 13 101 14
161 5 400 -6 155 -20 358 -31 451 -49 429 -51 458 -46 620 21 595 254 1000
842 1466 39 31 122 96 185 145 263 205 415 387 553 661 83 164 157 376 157
450 0 36 -20 54 -160 145 -207 134 -446 258 -614 317 -195 69 -420 103 -538
81z"/>
<path d="M11550 9063 c-69 -9 -265 -55 -313 -74 -242 -96 -415 -352 -617 -919
-136 -381 -212 -547 -338 -740 -130 -200 -391 -489 -455 -505 -53 -14 -127 43
-127 97 0 42 -23 22 -61 -54 -57 -114 -152 -268 -186 -300 -68 -64 -193 -98
-286 -78 -103 22 -152 57 -423 303 -148 134 -285 206 -499 262 -174 45 -277
58 -470 58 -399 0 -905 -113 -1111 -249 -100 -66 -416 -339 -428 -370 -3 -7 4
-40 15 -75 23 -73 20 -130 -8 -161 -22 -24 -116 -69 -198 -94 -88 -27 -229
-25 -325 5 -100 30 -157 64 -268 159 -104 89 -149 108 -237 99 -93 -10 -97
-20 -22 -56 53 -25 72 -41 91 -74 36 -64 40 -105 16 -203 -26 -113 -26 -117
15 -137 56 -27 111 -83 135 -139 31 -73 24 -132 -24 -202 -20 -29 -36 -57 -36
-63 0 -5 18 -18 40 -28 22 -10 55 -34 75 -53 54 -55 63 -105 39 -228 -6 -30
-3 -33 50 -59 74 -36 113 -36 173 1 42 26 54 42 101 134 29 58 67 120 85 138
96 101 252 160 585 223 151 28 152 28 234 -91 103 -149 172 -304 218 -485 74
-288 71 -329 -22 -388 -131 -83 -379 -200 -578 -272 -192 -70 -395 -152 -465
-190 -145 -78 -345 -222 -345 -250 0 -17 42 -30 143 -46 150 -23 371 6 724 96
224 57 717 160 730 152 5 -3 49 1 98 9 50 7 185 27 300 44 532 78 1082 178
1213 221 32 11 34 13 28 48 -4 20 -9 99 -12 176 -6 133 -4 146 25 266 37 149
37 153 10 190 -55 78 -279 146 -590 180 -107 12 -131 11 -300 -11 -303 -38
-449 -12 -614 110 -160 118 -245 281 -245 468 0 158 52 279 171 400 179 182
420 275 709 275 174 0 318 -29 495 -100 230 -91 335 -165 580 -404 219 -214
277 -247 348 -201 44 29 79 85 192 301 118 227 161 294 231 364 64 63 115 89
189 94 125 10 182 -25 280 -177 34 -52 97 -132 140 -178 105 -112 140 -159
180 -245 52 -108 69 -207 62 -357 -6 -138 -24 -219 -92 -436 -25 -77 -45 -148
-45 -157 0 -22 11 -21 90 4 36 11 126 35 200 54 134 34 205 49 475 100 158 31
240 59 328 112 128 78 255 208 278 285 24 84 59 441 59 613 0 60 7 182 15 270
8 88 22 241 30 340 15 175 35 299 75 475 29 130 48 308 65 620 19 361 42 546
99 825 l24 119 -32 31 c-82 76 -268 124 -506 130 -80 2 -161 1 -180 -2z"/>
</g>
</svg>
