<?xml version="1.0" standalone="no"?>
<!DOCTYPE svg PUBLIC "-//W3C//DTD SVG 20010904//EN"
 "http://www.w3.org/TR/2001/REC-SVG-20010904/DTD/svg10.dtd">
<svg version="1.0" xmlns="http://www.w3.org/2000/svg"
 width="1024.000000pt" height="1000.000000pt" viewBox="0 0 1024.000000 1000.000000"
 preserveAspectRatio="xMidYMid meet">

<g transform="translate(0.000000,1000.000000) scale(0.100000,-0.100000)"
fill="#000000" stroke="none">
<path d="M0 5000 l0 -5000 5120 0 5120 0 0 5000 0 5000 -5120 0 -5120 0 0
-5000z m4816 4277 l26 -23 14 -573 c14 -594 14 -598 -25 -628 -26 -20 -77 -15
-106 10 l-26 22 -9 400 c-5 220 -12 479 -15 577 l-5 176 26 31 c32 39 80 42
120 8z m1005 10 c38 -29 38 -36 25 -626 l-14 -572 -23 -25 c-39 -41 -109 -30
-137 22 -14 27 11 1143 27 1173 6 11 19 25 29 30 23 14 74 13 93 -2z m-636
-42 l25 -24 0 -556 0 -556 -25 -24 c-31 -32 -75 -32 -112 -1 l-28 24 -3 558
-2 557 21 24 c31 32 91 32 124 -2z m284 2 l21 -24 -2 -557 -3 -558 -28 -24
c-37 -31 -81 -31 -112 1 l-25 24 0 546 c0 636 -3 612 91 614 25 1 42 -6 58
-22z m-1303 -20 c12 -12 61 -126 109 -257 48 -129 119 -320 157 -425 182 -492
176 -469 132 -510 -35 -32 -84 -33 -114 -2 -12 12 -37 63 -55 112 -18 50 -106
286 -194 525 -89 239 -166 445 -171 458 -40 94 66 171 136 99z m2322 -3 c12
-14 22 -35 22 -48 0 -13 -41 -133 -91 -267 -50 -134 -111 -300 -137 -369 -148
-402 -182 -486 -202 -507 -47 -49 -140 -13 -140 54 0 15 90 273 201 573 220
596 226 609 293 596 17 -3 41 -17 54 -32z m-4221 -1318 c43 -18 134 -58 203
-89 130 -57 515 -226 975 -428 175 -77 278 -128 293 -145 47 -53 10 -134 -61
-134 -18 0 -82 22 -143 49 -60 26 -255 112 -434 191 -388 170 -796 349 -900
396 -41 18 -85 43 -97 55 -49 46 -12 139 56 139 16 0 65 -15 108 -34z m6158 9
c33 -32 34 -88 2 -117 -12 -11 -155 -79 -317 -150 -162 -71 -367 -161 -455
-200 -88 -38 -194 -85 -235 -103 -564 -249 -558 -247 -605 -229 -19 8 -45 55
-45 83 0 45 44 70 400 227 540 237 624 274 905 398 153 67 274 115 293 115 22
1 41 -7 57 -24z m-3720 -179 c46 -25 110 -111 126 -170 46 -170 -124 -301
-286 -222 -154 76 -192 249 -80 361 66 67 153 78 240 31z m1340 -10 c69 -53
99 -146 76 -232 -24 -90 -137 -174 -234 -174 -121 0 -210 104 -191 225 13 92
106 198 188 214 48 11 124 -5 161 -33z m-3546 -586 c196 -44 403 -91 461 -105
110 -25 347 -78 540 -122 179 -40 186 -42 204 -62 27 -30 25 -85 -5 -117 -21
-23 -29 -26 -74 -21 -27 3 -108 19 -180 35 -181 42 -556 127 -980 222 -396 89
-405 93 -405 160 0 20 6 43 13 52 13 16 46 37 61 38 4 0 169 -36 365 -80z
m5954 51 c28 -28 26 -86 -4 -115 -25 -25 -40 -29 -634 -162 -110 -25 -247 -56
-305 -69 -429 -97 -604 -135 -627 -135 -40 0 -73 36 -73 81 0 61 23 78 140
104 453 102 920 208 1190 270 241 56 280 59 313 26z m-4296 -85 l28 -24 -2
-674 -2 -673 -26 -22 c-40 -35 -87 -31 -121 10 l-27 32 6 656 c4 361 10 664
13 673 8 21 52 45 81 46 12 0 35 -11 50 -24z m2312 9 c16 -8 32 -22 36 -32 4
-10 10 -313 13 -673 l5 -655 -27 -33 c-35 -40 -85 -44 -120 -9 l-24 24 -7 644
c-4 355 -4 659 0 677 7 35 47 72 77 72 10 0 32 -7 47 -15z m-366 -27 c49 -26
63 -87 28 -129 -32 -39 -115 -44 -866 -44 -751 0 -834 5 -866 44 -32 39 -19
108 25 129 32 16 1650 16 1679 0z m14 -347 c7 -1 20 -12 29 -27 38 -58 2 -134
-63 -134 -19 0 -44 -5 -56 -12 -33 -18 -1481 -19 -1519 -1 -15 7 -42 13 -59
13 -45 0 -79 34 -79 77 0 42 15 72 40 81 14 5 1618 8 1707 3z m-3080 -259
l611 -7 26 -24 c45 -42 33 -120 -21 -139 -18 -6 -283 -6 -728 -1 -385 4 -782
8 -883 8 -180 1 -183 1 -207 26 -17 16 -25 35 -25 60 0 25 8 44 25 60 l24 25
283 -1 c156 0 558 -4 895 -7z m5657 -13 c36 -28 37 -89 1 -124 -23 -24 -29
-25 -167 -25 -162 0 -828 -8 -1299 -15 -329 -5 -370 -1 -389 35 -19 35 -12 85
16 111 l26 24 531 6 c1198 12 1251 12 1281 -12z m-3644 -125 c202 -4 475 -2
687 5 282 10 355 10 371 0 73 -45 40 -159 -45 -159 -23 0 -46 -9 -65 -25 l-31
-26 -161 8 c-210 10 -854 10 -1072 0 l-171 -8 -31 25 c-19 17 -42 26 -64 26
-80 0 -115 94 -55 151 21 20 28 21 162 15 77 -3 291 -9 475 -12z m-1374 -278
c21 -18 28 -32 28 -61 0 -49 -35 -80 -101 -89 -26 -4 -196 -29 -378 -56 -851
-127 -1083 -160 -1106 -160 -14 0 -35 9 -47 20 -43 41 -39 103 10 134 13 8
154 34 338 61 427 62 747 110 975 144 240 36 247 37 281 7z m3616 -31 c205
-30 481 -70 613 -90 132 -19 303 -45 380 -56 145 -21 178 -34 197 -74 22 -48
-20 -115 -71 -115 -14 0 -224 30 -466 65 -242 36 -579 86 -750 111 -183 27
-319 52 -333 60 -47 30 -49 99 -4 134 13 11 33 20 43 20 10 0 186 -25 391 -55z
m-2057 -66 c59 -17 121 -64 170 -130 48 -66 71 -126 89 -232 l12 -72 101 -21
c56 -12 114 -24 131 -27 24 -5 31 -2 41 19 15 34 97 120 138 145 18 12 57 27
86 35 221 59 445 -90 489 -324 14 -77 0 -165 -39 -237 -25 -48 -27 -59 -34
-250 -6 -194 -23 -336 -54 -479 -9 -38 -14 -71 -11 -73 2 -2 21 7 43 21 21 14
65 32 98 41 147 38 283 -1 386 -112 84 -90 119 -208 98 -327 -15 -87 -46 -144
-114 -212 -80 -81 -145 -107 -270 -108 -80 0 -97 3 -155 30 -81 39 -140 92
-184 167 l-35 59 -35 -70 c-48 -95 -133 -219 -224 -325 l-75 -89 7 -151 c18
-430 96 -580 376 -726 187 -97 299 -133 770 -245 432 -103 528 -137 652 -232
158 -122 268 -364 363 -802 47 -219 46 -250 -6 -277 -39 -21 -64 -19 -93 8
-22 19 -31 48 -61 190 -83 388 -171 613 -281 717 -70 67 -181 118 -353 165
-165 44 -221 53 -221 35 0 -8 -16 -45 -36 -84 -224 -433 -681 -735 -1269 -837
-172 -30 -532 -38 -716 -15 -414 52 -788 186 -1110 397 -227 149 -354 265
-545 497 -20 24 -22 25 -75 12 -167 -39 -311 -106 -377 -173 -109 -112 -196
-337 -277 -715 -30 -141 -39 -170 -61 -190 -28 -25 -54 -28 -87 -10 -57 30
-58 56 -12 271 98 458 202 685 370 813 123 95 207 124 642 229 477 114 597
153 781 250 196 104 294 223 336 405 19 82 36 268 36 385 l0 90 -71 80 c-79
91 -181 239 -228 333 l-32 64 -35 -59 c-87 -147 -248 -224 -409 -194 -303 56
-424 429 -212 649 76 79 177 121 289 122 57 0 155 -30 198 -60 17 -12 33 -20
36 -18 2 3 -2 36 -10 75 -36 167 -56 351 -56 502 0 151 -1 156 -30 216 -16 34
-35 87 -41 119 -23 112 20 252 105 339 141 145 354 167 506 51 28 -21 50 -41
50 -44 0 -3 11 -17 25 -32 21 -22 31 -26 62 -22 86 12 83 9 83 67 1 249 175
428 365 376z m-1591 -270 c20 -16 26 -29 26 -60 0 -54 -27 -77 -132 -112 -45
-16 -258 -90 -473 -164 -837 -290 -910 -314 -933 -308 -61 15 -85 100 -39 142
12 12 81 41 152 66 72 25 292 102 490 170 198 69 464 161 590 205 127 45 244
81 261 81 17 1 43 -8 58 -20z m3787 -140 c255 -88 572 -198 704 -244 296 -102
286 -98 309 -124 38 -42 14 -123 -41 -135 -28 -7 -81 10 -793 257 -135 47
-348 121 -474 165 -126 43 -240 88 -253 100 -51 45 -13 142 55 142 16 0 238
-72 493 -161z"/>
<path d="M5134 5796 c-23 -10 -40 -30 -60 -73 -53 -108 -35 -278 39 -368 70
-86 134 -78 183 21 26 52 29 69 28 149 -1 133 -46 229 -126 271 -32 16 -25 17
-64 0z"/>
<path d="M4380 5521 c-83 -26 -142 -84 -165 -166 -15 -50 -15 -60 -1 -109 49
-168 281 -180 368 -19 37 68 43 112 23 172 -31 95 -132 150 -225 122z"/>
<path d="M6035 5516 c-77 -28 -134 -128 -118 -208 21 -111 121 -198 228 -198
73 1 154 65 175 138 13 48 13 49 -5 110 -37 123 -170 198 -280 158z"/>
<path d="M4841 5361 l-45 -6 -13 -74 c-41 -221 -214 -356 -435 -338 l-71 6 6
-132 c13 -290 113 -719 212 -917 99 -198 278 -402 412 -473 137 -71 196 -89
328 -94 115 -5 124 -4 215 26 206 70 319 152 456 334 99 132 182 303 228 472
67 246 116 540 116 695 l0 89 -70 -6 c-42 -4 -94 -1 -131 7 -137 29 -274 168
-295 298 -3 21 -10 45 -14 52 -6 10 -204 58 -246 60 -6 0 -26 -29 -43 -64
-118 -240 -384 -228 -521 22 -28 51 -28 51 -89 43z"/>
<path d="M3868 4216 c-94 -34 -140 -95 -146 -190 -13 -197 205 -304 352 -175
83 73 99 181 40 276 -50 80 -162 121 -246 89z"/>
<path d="M6524 4214 c-45 -16 -98 -63 -120 -106 -71 -137 36 -311 192 -312 68
0 139 36 179 93 27 39 30 50 30 121 0 71 -3 82 -30 122 -56 79 -164 115 -251
82z"/>
<path d="M5560 3202 l-135 -57 -145 -3 -145 -4 -140 52 c-204 75 -182 79 -190
-37 -10 -142 -32 -277 -60 -356 -68 -196 -220 -346 -470 -463 l-98 -45 36 -37
c42 -43 54 -81 36 -114 -18 -34 -40 -47 -78 -48 -26 0 -49 13 -112 66 l-78 65
-108 -29 c-59 -16 -154 -40 -210 -52 -56 -13 -107 -26 -114 -30 -17 -11 26
-64 148 -181 321 -308 751 -516 1238 -600 152 -27 467 -36 627 -20 482 50 916
262 1159 567 61 77 149 222 149 246 0 11 -10 20 -27 24 -51 11 -288 73 -303
79 -9 3 -42 -13 -80 -40 -92 -65 -158 -60 -180 13 -6 24 -4 40 11 69 10 20 19
38 19 39 0 1 -34 18 -75 37 -271 129 -422 303 -476 547 -14 68 -39 290 -39
356 0 21 -13 17 -160 -44z m-863 -1138 c63 -31 89 -68 79 -109 -9 -36 -45 -65
-81 -65 -42 0 -156 46 -177 72 -25 29 -23 86 5 116 19 20 29 23 69 19 26 -2
73 -17 105 -33z m1233 6 c41 -41 34 -115 -13 -138 -47 -24 -129 -52 -152 -52
-40 0 -77 40 -77 84 0 48 20 69 98 101 72 30 117 32 144 5z m-641 -145 c49
-25 57 -90 16 -130 -22 -23 -32 -25 -106 -25 -71 0 -86 3 -106 22 -23 22 -30
67 -17 103 16 41 155 61 213 30z"/>
</g>
</svg>
