<?xml version="1.0" standalone="no"?>
<!DOCTYPE svg PUBLIC "-//W3C//DTD SVG 20010904//EN"
 "http://www.w3.org/TR/2001/REC-SVG-20010904/DTD/svg10.dtd">
<svg version="1.0" xmlns="http://www.w3.org/2000/svg"
 width="1280.000000pt" height="1250.000000pt" viewBox="0 0 1280.000000 1250.000000"
 preserveAspectRatio="xMidYMid meet">

<g transform="translate(0.000000,1250.000000) scale(0.100000,-0.100000)"
fill="#000000" stroke="none">
<path d="M0 6250 l0 -6250 6400 0 6400 0 0 6250 0 6250 -6400 0 -6400 0 0
-6250z m6136 4700 c172 -13 174 -14 174 -50 0 -35 3 -32 -133 -121 -131 -85
-281 -227 -346 -325 -48 -73 -71 -127 -157 -369 -83 -235 -153 -362 -251 -460
-104 -105 -224 -125 -418 -71 -273 77 -413 95 -573 75 -53 -7 -190 -12 -303
-12 l-206 0 8 -50 c5 -27 10 -51 12 -53 2 -2 28 0 57 6 132 25 308 8 615 -60
211 -46 327 -62 465 -62 152 0 209 17 294 92 86 75 139 64 175 -36 46 -131
103 -150 194 -65 77 71 89 175 43 361 -31 126 -35 227 -8 259 l17 21 355 -25
c792 -57 743 -52 757 -71 7 -10 12 -23 10 -29 -2 -5 -41 -30 -88 -55 -240
-129 -433 -303 -632 -570 -206 -277 -243 -323 -306 -382 -128 -121 -178 -133
-526 -124 -304 8 -800 32 -950 46 -147 14 -282 37 -383 66 -45 13 -88 24 -96
24 -8 0 -20 -25 -30 -65 -9 -35 -16 -66 -16 -68 0 -2 18 -17 41 -33 109 -75
214 -296 259 -545 67 -376 13 -697 -154 -910 -25 -31 -99 -103 -166 -159 -167
-140 -212 -215 -173 -283 25 -42 85 -74 175 -93 132 -28 258 2 373 89 88 67
116 77 243 84 71 4 102 10 102 18 0 7 -32 50 -71 96 -94 111 -142 183 -189
282 -53 111 -71 182 -77 308 -8 166 20 218 111 206 l44 -6 4 69 c3 56 8 74 28
96 38 41 97 64 165 64 89 0 114 -20 170 -132 25 -51 68 -135 94 -186 117 -220
107 -462 -18 -462 -78 0 -136 65 -203 228 -46 110 -63 136 -78 112 -29 -46 2
-220 61 -339 73 -149 174 -224 299 -225 161 -1 196 99 124 346 -49 164 -56
268 -24 364 23 69 51 102 179 217 33 29 42 44 39 64 -2 15 -8 28 -13 30 -6 2
-35 -18 -65 -43 -107 -88 -173 -105 -228 -59 -16 13 -35 38 -42 55 -19 47 -8
147 24 211 133 266 441 218 594 -92 64 -131 86 -223 87 -359 0 -100 -3 -120
-22 -157 -28 -52 -57 -73 -103 -73 -48 0 -83 37 -135 143 -46 95 -68 107 -90
53 -12 -28 -13 -46 -5 -82 35 -154 167 -265 300 -252 153 15 196 179 144 557
-18 132 -18 223 0 264 22 52 68 89 119 94 64 7 111 -12 156 -63 l38 -44 -4 93
c-3 50 -9 96 -14 101 -6 6 -26 2 -53 -11 -122 -59 -222 -25 -233 81 -8 68 31
139 119 220 96 89 176 128 277 134 100 6 162 -19 226 -90 80 -89 94 -199 50
-402 -36 -167 -32 -205 19 -192 35 9 58 56 96 206 23 93 50 163 102 269 98
202 103 259 34 348 -70 89 -70 171 -2 239 43 43 83 50 266 50 153 -1 156 -1
209 -31 109 -60 183 -144 225 -256 l23 -62 -5 76 c-11 183 61 337 188 402 101
51 188 41 257 -31 54 -56 69 -105 89 -307 18 -183 45 -283 98 -367 92 -143
111 -221 104 -410 -9 -213 -74 -352 -224 -482 -112 -97 -138 -140 -131 -222 8
-84 52 -166 147 -271 95 -104 125 -158 141 -252 12 -76 3 -133 -47 -293 -30
-96 -33 -172 -23 -560 6 -212 6 -217 44 -340 31 -106 38 -143 42 -245 3 -92 1
-133 -12 -175 -30 -102 -31 -95 14 -109 60 -18 94 -5 286 109 93 55 203 113
245 129 182 71 368 59 537 -34 120 -66 223 -153 529 -445 299 -287 452 -403
688 -521 257 -130 297 -161 317 -247 12 -54 -4 -100 -56 -161 -25 -29 -45 -57
-45 -61 0 -11 53 -25 150 -39 93 -14 189 -59 246 -117 119 -119 86 -311 -83
-484 -40 -41 -73 -82 -73 -92 0 -9 7 -43 15 -75 38 -143 7 -273 -64 -273 -39
1 -65 28 -105 110 -20 42 -55 96 -79 121 -44 47 -156 124 -291 200 -98 54
-235 182 -300 278 -43 64 -81 140 -205 406 -63 133 -144 248 -256 361 -84 84
-113 107 -185 141 -47 23 -112 47 -144 53 -154 31 -331 -36 -467 -177 -61 -63
-69 -74 -214 -298 -117 -180 -264 -336 -381 -403 -251 -145 -524 -132 -704 35
-72 67 -95 113 -149 302 -57 198 -103 303 -219 499 -131 222 -154 281 -154
392 0 96 18 160 88 332 88 214 108 360 70 493 -55 189 -204 377 -392 497 -276
176 -972 338 -1524 355 -304 9 -465 -14 -830 -118 -196 -56 -226 -62 -336 -66
-151 -7 -256 12 -370 66 -253 120 -365 391 -216 522 80 70 186 92 312 64 128
-28 142 -28 173 -2 28 24 29 25 13 55 -21 41 -20 76 4 144 36 104 69 245 81
352 32 288 -72 611 -254 783 -96 91 -176 115 -245 73 -19 -12 -60 -43 -93 -70
-66 -55 -88 -64 -133 -56 -45 9 -91 60 -139 157 -53 106 -88 133 -164 127
-174 -14 -398 -247 -557 -578 -185 -387 -202 -881 -45 -1353 80 -242 270 -589
439 -802 179 -226 510 -496 783 -640 263 -138 450 -185 902 -225 127 -11 257
-26 290 -34 118 -28 334 -47 615 -55 230 -7 295 -12 335 -26 67 -23 114 -60
132 -104 14 -32 14 -43 -1 -106 -9 -38 -16 -79 -16 -90 0 -79 -51 -148 -118
-160 -48 -8 -54 -25 -18 -49 14 -8 28 -25 31 -37 4 -12 22 -35 41 -51 41 -36
43 -60 17 -220 -12 -79 -14 -113 -6 -130 l11 -23 12 30 c6 17 14 123 18 250 8
242 14 268 69 281 61 16 113 -54 133 -177 5 -36 24 -97 41 -135 28 -61 31 -76
26 -137 -5 -79 6 -84 41 -17 33 63 26 145 -22 269 -21 54 -39 121 -42 155 -9
101 -10 104 -55 117 -53 16 -89 59 -89 107 0 43 28 94 65 118 34 22 119 22
201 0 106 -28 162 -16 199 41 10 15 29 40 43 55 23 25 24 30 12 54 -12 22 -12
31 2 67 38 99 78 216 93 270 12 46 21 60 42 68 26 9 30 7 88 -35 9 -7 24 0 49
22 45 39 68 40 95 6 26 -32 28 -133 7 -234 -21 -97 -34 -197 -51 -375 -19
-207 -37 -307 -85 -485 -22 -80 -40 -155 -40 -167 0 -17 59 -59 280 -205 155
-100 328 -216 387 -257 256 -178 383 -355 386 -537 2 -104 -38 -182 -155 -296
-160 -156 -493 -398 -768 -558 -465 -270 -976 -456 -1300 -474 -47 -3 -132
-17 -190 -31 -58 -15 -122 -31 -142 -36 -21 -5 -63 -32 -94 -59 -32 -28 -64
-50 -73 -50 -8 0 -28 12 -43 27 -56 53 -26 136 83 233 79 71 78 65 33 170 -39
92 -40 210 -3 291 31 66 101 138 167 170 41 21 61 24 152 24 92 -1 113 -4 170
-28 120 -52 122 -52 136 -32 9 12 13 46 11 106 -2 75 1 91 19 116 34 46 83 57
194 44 126 -15 174 -14 262 4 138 29 256 99 310 184 61 98 35 130 -217 261
-325 169 -473 297 -561 486 -65 138 -73 190 -104 647 -13 195 -16 201 -117
216 -322 51 -896 179 -1193 268 -661 196 -1209 526 -1681 1011 -368 378 -589
747 -671 1126 -19 87 -22 130 -22 311 0 188 3 223 27 336 68 323 163 523 366
769 131 158 167 209 201 281 84 180 82 373 -10 904 -64 368 -58 575 20 743 78
168 269 282 471 282 102 0 135 -13 196 -76 56 -59 69 -63 147 -39 35 11 95 15
205 15 279 0 449 -29 819 -136 360 -105 405 -116 517 -117 90 -2 106 1 159 26
98 46 156 30 170 -47 6 -31 -14 -129 -34 -166 -14 -26 -13 -73 2 -88 16 -16
63 -15 96 2 66 35 121 128 122 207 0 25 -14 99 -30 165 -34 131 -47 246 -36
318 17 111 144 187 361 215 99 12 359 13 511 1z"/>
<path d="M3225 9756 c-181 -57 -235 -194 -169 -422 14 -49 29 -93 33 -97 13
-13 66 58 105 139 53 108 86 219 93 312 7 91 8 90 -62 68z"/>
<path d="M7360 8799 c0 -67 -23 -132 -54 -158 -28 -24 -80 -18 -119 12 -20 15
-40 27 -46 27 -14 0 -14 -44 0 -94 32 -117 234 -216 277 -136 22 41 10 218
-22 319 -14 46 -28 87 -31 89 -3 3 -5 -24 -5 -59z"/>
<path d="M6935 7835 c-222 -48 -513 -203 -760 -402 -151 -122 -201 -182 -75
-89 198 145 501 274 780 333 170 36 406 38 548 4 51 -12 98 -19 103 -16 48 31
-96 127 -248 166 -90 22 -255 25 -348 4z"/>
</g>
</svg>
