<?xml version="1.0" standalone="no"?>
<!DOCTYPE svg PUBLIC "-//W3C//DTD SVG 20010904//EN"
 "http://www.w3.org/TR/2001/REC-SVG-20010904/DTD/svg10.dtd">
<svg version="1.0" xmlns="http://www.w3.org/2000/svg"
 width="800.000000pt" height="780.000000pt" viewBox="0 0 800.000000 780.000000"
 preserveAspectRatio="xMidYMid meet">

<g transform="translate(0.000000,780.000000) scale(0.100000,-0.100000)"
fill="#000000" stroke="none">
<path d="M0 3900 l0 -3900 4000 0 4000 0 0 3900 0 3900 -4000 0 -4000 0 0
-3900z m4839 3584 c34 -43 44 -22 -125 -256 -238 -330 -391 -616 -473 -886
-18 -59 -27 -75 -48 -83 -33 -12 -60 -4 -80 27 -15 23 -14 30 2 92 39 149 134
364 236 539 112 190 372 562 407 583 30 17 60 11 81 -16z m-1162 -501 c40 -36
211 -325 266 -450 35 -80 77 -207 77 -235 0 -25 -39 -58 -69 -58 -38 0 -54 22
-81 110 -31 105 -103 251 -209 422 -50 81 -91 155 -91 164 0 25 40 64 66 64
12 0 31 -8 41 -17z m-209 -211 c49 -57 187 -271 224 -349 50 -102 58 -151 30
-176 -13 -12 -32 -17 -53 -15 -32 3 -37 8 -94 123 -33 66 -97 174 -142 241
-83 120 -96 154 -70 186 27 35 69 31 105 -10z m1250 10 c20 -27 14 -72 -16
-111 -67 -85 -141 -204 -197 -316 -57 -114 -62 -120 -94 -123 -21 -2 -40 3
-53 15 -27 24 -20 73 26 169 61 129 232 379 264 387 25 6 55 -3 70 -21z
m-1820 -44 c242 -100 411 -232 535 -419 74 -111 84 -141 63 -174 -19 -29 -56
-41 -84 -26 -11 6 -34 37 -52 68 -106 187 -264 321 -495 419 -49 21 -98 44
-107 53 -23 18 -23 69 -1 93 23 26 53 23 141 -14z m2424 15 c23 -21 24 -75 1
-95 -10 -8 -36 -22 -58 -30 -272 -106 -439 -247 -567 -477 -18 -33 -61 -50
-87 -34 -9 5 -22 21 -30 35 -13 23 -12 30 14 82 44 88 154 224 237 296 90 78
210 151 333 202 100 42 130 46 157 21z m-2632 -347 c403 -103 650 -282 650
-471 0 -101 -41 -176 -118 -217 -26 -14 -121 -49 -212 -78 -412 -131 -620
-244 -688 -374 -21 -41 -26 -65 -27 -121 0 -134 79 -304 172 -369 39 -27 54
-30 147 -36 143 -10 180 -36 192 -136 10 -88 12 -92 51 -104 49 -16 73 -38 73
-66 0 -36 -10 -54 -40 -69 -27 -14 -27 -15 -18 -72 24 -162 86 -287 171 -350
43 -32 54 -29 78 22 28 60 81 76 122 36 15 -14 20 -42 27 -132 8 -119 13 -138
60 -231 86 -168 241 -310 367 -334 31 -6 34 -4 50 32 18 42 24 209 10 275 -7
33 -12 38 -50 48 -93 23 -184 128 -194 224 -5 48 -2 64 21 112 34 69 90 109
182 131 37 8 115 31 173 51 139 47 220 50 304 11 34 -16 91 -32 140 -38 226
-30 327 -181 232 -346 -42 -72 -151 -153 -207 -154 -31 0 -42 -40 -42 -160 0
-86 5 -125 17 -154 16 -36 19 -38 50 -32 144 28 321 206 399 401 13 33 23 90
28 164 7 90 12 118 27 132 41 40 94 24 122 -36 24 -51 35 -54 78 -22 85 63
147 188 171 349 l9 58 -34 20 c-27 16 -33 25 -33 53 0 40 15 55 74 77 l41 16
7 67 c12 121 44 147 194 157 93 6 108 9 147 36 136 95 213 356 144 490 -66
130 -275 243 -687 374 -91 29 -186 64 -212 78 -146 77 -159 282 -26 415 121
120 365 234 621 288 55 12 58 11 82 -11 14 -13 25 -33 25 -46 0 -43 -30 -61
-169 -98 -162 -44 -297 -101 -390 -167 -81 -57 -120 -103 -128 -153 -12 -78
27 -116 163 -155 284 -80 560 -198 690 -294 181 -133 235 -317 158 -546 -46
-136 -129 -248 -229 -306 -39 -23 -62 -29 -129 -32 -127 -6 -122 -4 -129 -73
-3 -33 -14 -75 -25 -93 -12 -21 -22 -63 -26 -109 l-7 -76 108 2 c138 1 181
-20 228 -112 9 -19 41 -61 72 -94 99 -108 114 -173 114 -497 0 -292 -20 -389
-93 -458 -35 -33 -102 -53 -175 -53 -78 0 -122 19 -148 63 -19 30 -20 52 -20
307 0 250 -2 280 -20 330 -30 81 -63 100 -177 100 -77 0 -93 -3 -126 -25 -40
-26 -122 -48 -145 -39 -11 4 -19 -12 -31 -61 -18 -72 -61 -164 -108 -233 l-30
-44 68 -73 69 -74 45 5 c25 3 66 8 91 11 39 5 49 2 67 -18 27 -28 28 -60 5
-87 -13 -14 -45 -25 -115 -37 -54 -9 -100 -20 -103 -25 -7 -11 -44 -204 -40
-208 2 -2 21 6 43 17 140 71 340 39 462 -75 74 -69 105 -139 105 -239 0 -67
-5 -89 -28 -136 -34 -70 -109 -142 -185 -177 -75 -35 -224 -43 -305 -17 -72
24 -153 80 -195 136 l-36 48 -42 -78 c-43 -82 -100 -169 -152 -234 -33 -42
-34 -58 -6 -192 52 -250 175 -319 700 -395 351 -51 489 -103 666 -256 165
-142 249 -306 297 -584 12 -69 36 -198 52 -288 22 -124 27 -168 19 -183 -27
-49 -102 -40 -119 14 -6 18 -27 124 -46 237 -49 282 -63 343 -96 431 -29 75
-105 195 -148 233 -22 20 -22 20 -53 -20 -58 -72 -232 -245 -308 -307 -410
-332 -920 -510 -1460 -511 -334 0 -608 54 -885 176 -324 143 -649 426 -802
698 -15 28 -30 50 -33 50 -17 -1 -130 -114 -171 -173 -85 -122 -110 -207 -185
-637 -15 -85 -31 -167 -36 -182 -17 -49 -93 -55 -118 -8 -8 16 -7 39 4 98 9
42 32 169 51 282 19 113 49 249 66 302 65 205 209 375 417 492 125 70 221 96
532 141 411 60 560 126 627 274 26 58 48 147 56 224 4 41 1 52 -25 85 -52 64
-109 151 -152 233 l-42 78 -36 -48 c-42 -56 -123 -112 -195 -136 -81 -26 -230
-18 -305 17 -76 35 -151 107 -185 177 -23 47 -28 69 -28 136 0 100 31 170 105
239 122 114 322 146 462 75 22 -11 41 -19 43 -17 4 4 -26 169 -35 194 -7 19
-24 25 -107 39 -71 12 -103 23 -115 37 -24 27 -23 59 4 87 18 20 28 23 67 18
25 -3 66 -8 91 -11 l45 -5 69 74 68 73 -30 44 c-47 69 -90 161 -108 232 -14
56 -19 66 -35 61 -26 -8 -98 12 -141 41 -33 21 -49 24 -126 24 -114 0 -147
-19 -177 -100 -18 -50 -20 -80 -20 -330 0 -255 -1 -277 -20 -307 -29 -49 -73
-66 -164 -61 -93 4 -144 27 -187 85 -48 63 -56 112 -61 385 -7 357 7 424 110
536 31 33 63 75 72 94 47 92 90 113 228 112 l108 -2 -7 76 c-4 46 -14 88 -26
109 -11 18 -22 60 -25 93 -7 69 -2 67 -128 73 -98 5 -143 26 -219 102 -38 37
-69 83 -101 147 -129 263 -88 482 119 635 132 97 409 215 701 298 125 35 164
74 152 151 -19 113 -227 242 -518 320 -138 37 -169 55 -169 97 0 25 37 67 59
67 9 0 59 -11 111 -24z m1315 -276 c105 -6 286 -14 403 -19 238 -10 252 -14
252 -77 0 -58 -28 -67 -172 -60 -68 4 -222 11 -343 16 -421 19 -527 29 -552
53 -29 26 -29 61 -2 88 20 20 28 21 123 15 55 -3 187 -11 291 -16z m423 -236
c15 -10 22 -25 22 -49 0 -64 11 -62 -427 -67 -389 -5 -426 -3 -445 26 -14 20
-8 63 10 79 23 21 60 23 467 25 303 2 354 0 373 -14z m-3119 -44 c229 -58 411
-119 554 -188 l125 -60 21 29 c28 37 82 41 105 7 22 -31 20 -47 -14 -110 -113
-208 -120 -413 -29 -786 28 -115 29 -125 15 -148 -22 -32 -60 -40 -91 -20 -14
9 -25 23 -25 31 0 39 -197 -1 -347 -70 -97 -45 -234 -123 -355 -202 -101 -66
-137 -76 -170 -46 -32 29 -23 68 25 106 66 53 250 165 382 232 131 66 226 100
342 120 41 7 76 15 78 17 5 4 -11 77 -18 85 -14 13 -174 24 -279 20 -103 -5
-120 -4 -139 12 -15 12 -22 28 -21 51 2 62 11 65 223 65 l190 0 -3 89 -3 90
-33 19 c-122 71 -498 167 -880 226 -83 12 -129 24 -142 36 -20 18 -26 60 -12
81 13 20 50 34 79 29 15 -3 87 -14 158 -26 323 -51 558 -107 753 -181 45 -17
85 -29 87 -26 3 3 14 37 24 77 l19 72 -80 40 c-162 82 -411 165 -651 220 -100
22 -137 44 -137 80 0 27 39 69 65 69 13 0 95 -18 184 -40z m5688 18 c13 -12
23 -31 23 -43 0 -42 -33 -60 -156 -90 -254 -59 -459 -128 -625 -211 l-87 -43
19 -72 c10 -40 21 -74 24 -77 2 -2 48 12 102 31 190 70 436 128 738 176 72 12
143 23 158 26 29 5 66 -9 79 -29 14 -21 8 -63 -12 -81 -13 -12 -64 -25 -167
-41 -313 -48 -554 -105 -743 -173 -126 -46 -150 -63 -150 -106 0 -19 3 -35 8
-35 4 0 50 11 102 24 304 77 684 52 994 -66 45 -17 140 -59 212 -93 110 -53
133 -68 144 -94 10 -26 10 -35 -4 -56 -28 -42 -55 -41 -154 9 -175 88 -342
150 -491 181 -175 37 -511 42 -511 9 0 -8 10 -14 23 -14 34 0 199 -37 270 -61
154 -51 384 -185 545 -316 48 -39 56 -79 22 -113 -28 -28 -51 -25 -106 15
-337 241 -505 316 -756 336 -124 10 -308 2 -324 -14 -8 -7 -24 -81 -19 -85 2
-2 37 -10 78 -17 116 -20 211 -54 342 -120 134 -68 356 -204 398 -243 31 -29
35 -66 10 -94 -28 -31 -69 -22 -156 36 -108 71 -283 171 -372 212 -95 44 -236
84 -295 84 -40 0 -48 -4 -58 -25 -22 -47 -100 -38 -116 13 -4 11 9 82 28 160
49 198 60 284 53 426 -6 138 -27 220 -81 323 -40 76 -43 89 -20 121 23 34 77
30 105 -7 l21 -29 122 58 c66 32 177 77 246 100 138 46 451 129 489 130 14 0
35 -10 48 -22z m-2778 -228 c303 -17 316 -18 333 -40 24 -30 23 -53 -4 -85
l-23 -25 -250 15 c-137 8 -358 19 -489 25 -200 8 -242 12 -258 26 -24 23 -23
69 3 95 20 20 27 21 198 14 97 -4 317 -15 490 -25z m861 -156 c44 -25 54 -78
20 -109 -19 -17 -25 -17 -89 -5 -187 35 -398 -53 -486 -205 -38 -64 -75 -176
-61 -181 7 -3 124 -3 262 -2 299 4 318 9 380 102 39 60 78 89 132 101 44 9 54
38 46 135 -6 70 -5 79 15 99 27 27 56 27 85 -3 31 -30 44 -145 26 -229 -14
-67 -56 -111 -126 -128 -39 -10 -50 -20 -85 -70 -82 -121 -153 -139 -541 -138
l-276 1 -64 -65 c-116 -118 -233 -152 -375 -109 -77 24 -170 81 -222 136 l-35
36 -275 0 c-379 0 -448 18 -530 139 -35 50 -46 60 -85 70 -70 17 -112 61 -126
128 -18 84 -5 199 26 229 29 30 58 30 85 3 20 -20 21 -29 15 -99 -8 -97 2
-126 46 -135 54 -12 93 -41 132 -101 60 -90 85 -97 349 -102 154 -3 222 -1
230 7 8 8 -4 26 -48 67 -118 110 -242 164 -375 164 -81 0 -110 17 -110 64 0
63 13 69 141 64 88 -4 129 -11 180 -30 128 -47 251 -149 399 -328 99 -121 191
-182 291 -196 88 -12 193 59 262 176 14 25 42 88 62 140 45 118 81 175 154
242 118 109 258 160 431 155 84 -2 112 -6 140 -23z m-1643 -785 c43 -6 100
-22 128 -35 58 -29 138 -104 160 -150 43 -92 -6 -186 -119 -229 -68 -26 -202
-18 -278 17 -105 49 -208 172 -208 250 l0 28 -72 0 c-52 0 -76 4 -90 17 -22
20 -23 70 -1 95 14 16 35 18 209 18 106 0 228 -5 271 -11z m1681 -5 c27 -18
30 -69 5 -96 -13 -14 -31 -18 -90 -18 l-73 0 0 -28 c0 -78 -103 -201 -210
-250 -74 -35 -209 -43 -276 -17 -114 44 -162 137 -118 231 21 44 110 125 167
152 65 31 145 39 372 41 167 1 204 -2 223 -15z m-2116 -1055 c80 -9 108 -16
126 -32 27 -25 28 -57 3 -88 -18 -23 -19 -23 -135 -12 -129 12 -156 25 -156
75 0 27 30 68 50 68 5 0 56 -5 112 -11z m2218 -9 c11 -11 20 -33 20 -48 0 -50
-27 -63 -156 -75 -116 -11 -117 -11 -135 12 -25 31 -24 63 4 89 16 15 43 23
107 30 129 14 138 14 160 -8z"/>
<path d="M2575 4132 c-29 -6 -43 -20 -62 -60 -9 -19 -41 -61 -70 -92 -84 -91
-86 -100 -91 -367 -5 -261 6 -358 43 -401 19 -22 31 -26 76 -27 l54 0 -3 230
c-4 247 7 340 50 432 37 79 122 133 210 133 19 0 37 3 40 6 9 8 -46 125 -63
134 -16 9 -155 18 -184 12z"/>
<path d="M5393 4131 c-40 -3 -76 -10 -81 -16 -16 -17 -60 -123 -54 -129 3 -3
21 -6 40 -6 88 0 173 -54 210 -133 42 -89 55 -203 51 -442 l-4 -220 54 0 c45
1 57 5 76 27 37 43 48 140 43 401 -5 267 -7 276 -91 367 -29 31 -61 73 -70 92
-29 61 -54 69 -174 59z"/>
<path d="M4010 4076 c-25 -7 -65 -21 -90 -30 -24 -9 -87 -28 -140 -42 -103
-27 -126 -43 -135 -89 -8 -40 27 -94 78 -119 l38 -18 120 42 c144 51 177 50
293 -3 114 -53 172 -50 239 12 58 53 71 104 35 139 -31 28 -68 41 -157 53 -42
6 -99 21 -127 34 -72 32 -102 36 -154 21z"/>
<path d="M3953 3703 l-73 -25 8 -56 c12 -95 7 -252 -11 -313 -20 -66 -68 -119
-124 -135 -37 -11 -38 -12 -43 -68 -4 -41 -11 -62 -25 -72 -27 -20 -62 -17
-86 7 -17 17 -20 31 -18 87 l2 66 -64 39 c-35 21 -80 54 -99 73 -20 19 -40 34
-45 33 -6 0 -27 -20 -48 -44 l-38 -43 16 -104 c43 -292 152 -611 269 -787 25
-37 82 -103 128 -147 126 -120 218 -157 369 -150 71 4 93 9 163 44 133 67 257
204 349 388 74 148 161 441 192 648 l16 108 -38 43 c-21 24 -42 44 -47 44 -4
1 -30 -18 -56 -42 -26 -24 -76 -58 -110 -76 l-63 -34 6 -85 c5 -79 3 -86 -19
-108 -28 -29 -54 -30 -84 -6 -19 15 -24 31 -28 96 -5 77 -5 78 -37 91 -50 22
-94 74 -112 135 -16 55 -23 210 -13 300 l5 45 -75 37 c-41 21 -79 37 -85 37
-5 0 -43 -12 -82 -26z"/>
<path d="M2939 2860 c-131 -22 -233 -139 -213 -245 19 -104 129 -185 249 -185
151 0 265 93 265 216 0 137 -144 239 -301 214z"/>
<path d="M4995 2848 c-57 -20 -113 -67 -134 -111 -74 -152 49 -307 244 -307
120 0 230 81 249 185 16 82 -45 178 -139 221 -55 26 -164 32 -220 12z"/>
<path d="M3684 2013 c-39 -172 -66 -232 -140 -312 -56 -61 -144 -114 -241
-146 -29 -9 -53 -18 -53 -20 0 -1 7 -22 15 -46 19 -53 13 -83 -20 -105 -42
-27 -77 -5 -108 68 -19 44 -31 59 -41 55 -9 -4 -109 -20 -223 -37 -217 -32
-331 -59 -396 -92 l-38 -19 26 -46 c79 -142 241 -325 387 -436 443 -339 1066
-461 1665 -328 437 98 862 344 1133 656 41 48 75 92 75 98 0 19 -151 93 -235
115 -86 24 -486 86 -505 78 -7 -2 -15 -19 -19 -37 -9 -46 -33 -69 -72 -69 -46
0 -68 34 -59 90 4 22 7 43 7 47 0 4 -30 17 -66 29 -105 36 -182 83 -240 145
-64 69 -99 138 -126 250 -10 45 -21 83 -22 85 -2 1 -26 -11 -53 -28 -93 -58
-147 -71 -290 -72 -159 -1 -206 12 -332 92 -21 13 -23 12 -29 -15z m-956 -636
c20 -42 1 -74 -63 -103 -65 -30 -91 -28 -118 8 -17 23 -18 31 -8 56 11 26 64
59 121 75 25 7 54 -9 68 -36z m2742 3 c78 -23 93 -36 88 -82 -2 -23 -11 -37
-30 -48 -25 -13 -34 -13 -104 5 -108 28 -141 77 -88 130 21 20 54 19 134 -5z
m-1836 -41 c47 -37 23 -109 -36 -109 -66 0 -92 69 -42 109 15 12 32 21 39 21
7 0 24 -9 39 -21z m900 -40 c45 -36 30 -95 -30 -113 -31 -9 -74 28 -74 64 0
29 38 70 65 70 7 0 24 -9 39 -21z m651 -118 c74 -34 96 -64 77 -106 -19 -42
-54 -48 -118 -22 -101 40 -128 84 -79 132 31 32 42 31 120 -4z m-1083 -18 c48
-55 20 -104 -70 -122 -33 -6 -67 -9 -76 -5 -37 14 -48 80 -18 107 39 35 140
47 164 20z m-1035 -15 c18 -14 16 -83 -2 -98 -8 -6 -48 -16 -90 -22 -94 -12
-125 2 -125 57 0 44 20 62 78 70 26 3 54 8 62 10 21 4 62 -5 77 -17z m367
-190 c29 -41 20 -64 -55 -143 -40 -41 -82 -78 -95 -81 -48 -12 -90 37 -72 86
5 14 39 55 76 93 55 55 72 67 99 67 22 0 37 -7 47 -22z m1423 -73 c81 -101 90
-130 47 -164 -37 -29 -55 -26 -96 17 -110 116 -143 193 -95 227 42 30 67 16
144 -80z m-1019 -72 c40 -35 36 -55 -24 -144 -31 -46 -64 -92 -74 -103 -38
-39 -110 -10 -110 44 0 15 21 57 50 101 80 117 114 139 158 102z m506 -70 c59
-82 71 -128 40 -153 -28 -24 -75 -16 -101 16 -53 63 -93 130 -93 153 0 35 28
61 65 61 29 0 39 -8 89 -77z"/>
</g>
</svg>
