<?xml version="1.0" standalone="no"?>
<!DOCTYPE svg PUBLIC "-//W3C//DTD SVG 20010904//EN"
 "http://www.w3.org/TR/2001/REC-SVG-20010904/DTD/svg10.dtd">
<svg version="1.0" xmlns="http://www.w3.org/2000/svg"
 width="1600.000000pt" height="1562.000000pt" viewBox="0 0 1600.000000 1562.000000"
 preserveAspectRatio="xMidYMid meet">

<g transform="translate(0.000000,1562.000000) scale(0.100000,-0.100000)"
fill="#000000" stroke="none">
<path d="M0 7810 l0 -7810 8000 0 8000 0 0 7810 0 7810 -8000 0 -8000 0 0
-7810z m8105 2210 c98 -47 195 -147 258 -268 52 -99 97 -253 97 -334 0 -53 24
-88 61 -88 18 0 94 -15 314 -61 61 -13 61 -13 95 49 48 85 161 192 243 231
312 149 684 14 842 -304 49 -97 65 -169 65 -283 -1 -136 -18 -203 -79 -307
l-35 -60 -7 -295 c-4 -162 -12 -328 -18 -368 -21 -148 -53 -339 -72 -431 -29
-140 -30 -137 44 -93 112 69 182 87 337 86 122 0 142 -3 204 -27 103 -41 176
-89 249 -166 155 -164 207 -385 146 -616 -31 -116 -138 -260 -251 -336 -188
-128 -429 -144 -638 -42 -103 49 -230 177 -280 281 -19 39 -37 72 -40 72 -3 0
-29 -48 -59 -106 -96 -190 -267 -432 -422 -598 l-66 -71 8 -210 c13 -350 31
-498 81 -655 77 -243 242 -418 538 -572 269 -140 544 -230 1098 -358 291 -68
631 -151 697 -171 288 -87 450 -175 597 -327 207 -212 351 -556 487 -1162 54
-241 76 -377 67 -422 -4 -24 -19 -47 -42 -67 -30 -26 -43 -31 -89 -31 -43 0
-59 5 -85 27 -37 31 -45 49 -65 151 -23 121 -37 185 -45 217 -4 17 -13 57 -20
90 -7 33 -24 103 -37 155 -14 52 -28 109 -32 125 -4 17 -31 98 -59 181 -166
489 -298 640 -671 764 -118 40 -500 140 -533 140 -11 0 -20 -10 -24 -28 -11
-48 -103 -221 -176 -331 -125 -188 -266 -347 -423 -479 -481 -404 -1021 -623
-1755 -714 -141 -17 -708 -17 -855 0 -742 88 -1343 301 -1905 676 -349 232
-610 474 -854 790 -32 43 -11 45 -225 -15 -484 -136 -632 -290 -809 -839 -65
-203 -133 -479 -172 -695 -30 -168 -63 -215 -154 -215 -117 0 -161 84 -127
242 6 29 16 78 22 108 83 424 201 807 320 1043 120 238 288 405 519 514 141
68 433 149 955 267 613 139 939 252 1235 427 219 130 371 317 435 536 37 129
71 452 76 730 l2 113 -70 72 c-96 101 -180 208 -288 373 -51 77 -94 145 -96
150 -2 6 -24 48 -48 94 l-43 84 -32 -59 c-109 -203 -256 -317 -460 -354 -87
-16 -220 -8 -306 19 -191 60 -352 222 -412 416 -31 100 -31 272 -1 370 61 194
218 353 411 418 56 18 88 22 197 22 146 -1 211 -17 317 -81 69 -42 82 -43 74
-6 -17 75 -57 308 -81 467 -20 135 -35 365 -35 558 l0 158 -39 72 c-56 103
-74 174 -75 292 0 117 14 184 59 280 63 131 181 251 308 313 138 67 324 79
471 31 90 -30 197 -107 261 -188 l50 -63 80 6 c128 9 125 7 125 85 0 68 21
207 41 270 37 120 144 264 235 317 75 44 121 54 224 51 83 -3 104 -8 165 -37z"/>
<path d="M7858 9764 c-35 -18 -79 -83 -108 -159 -21 -52 -24 -78 -24 -190 -1
-112 3 -139 23 -195 46 -128 91 -197 151 -235 57 -35 86 -39 135 -15 53 26 95
85 127 178 32 95 31 258 -1 356 -42 131 -106 228 -172 262 -36 18 -96 17 -131
-2z"/>
<path d="M6629 9315 c-103 -38 -170 -93 -218 -180 -60 -109 -65 -210 -17 -308
54 -112 148 -170 272 -170 59 0 83 5 140 32 104 49 161 111 203 224 76 207
-67 418 -284 416 -33 0 -76 -6 -96 -14z"/>
<path d="M9313 9306 c-204 -95 -234 -379 -57 -546 139 -132 325 -140 457 -21
37 33 75 108 87 171 28 146 -69 319 -218 388 -82 38 -196 41 -269 8z"/>
<path d="M7376 9059 c-27 -4 -52 -13 -56 -20 -4 -6 -11 -42 -14 -80 -21 -207
-136 -380 -333 -502 -88 -55 -269 -92 -373 -77 -30 5 -70 9 -87 9 l-33 1 0
-99 c0 -102 12 -254 31 -376 67 -449 155 -825 251 -1070 128 -323 417 -713
641 -862 156 -104 341 -181 482 -202 292 -43 480 -6 774 150 134 72 195 116
282 206 310 320 503 701 610 1208 6 28 15 66 19 85 73 315 144 920 112 952 -8
8 -33 9 -94 1 -283 -34 -537 104 -667 364 -27 55 -61 169 -61 206 0 10 -12 22
-27 28 -43 16 -374 81 -388 75 -7 -2 -31 -43 -54 -91 -56 -115 -149 -212 -247
-256 -60 -27 -78 -31 -158 -31 -101 0 -152 14 -228 63 -73 47 -170 159 -217
249 -41 79 -43 80 -79 79 -20 -1 -59 -5 -86 -10z"/>
<path d="M5796 7196 c-74 -31 -122 -69 -162 -127 -73 -109 -82 -232 -25 -351
36 -76 90 -129 170 -167 48 -22 70 -26 146 -26 77 0 98 4 145 27 219 108 270
392 101 566 -93 96 -253 129 -375 78z"/>
<path d="M10143 7206 c-136 -44 -221 -145 -246 -291 -9 -52 -8 -73 7 -126 46
-171 196 -280 365 -266 135 11 237 83 294 206 78 171 1 379 -172 459 -67 32
-181 40 -248 18z"/>
<path d="M8745 5635 c-98 -47 -162 -74 -285 -120 -108 -41 -140 -48 -240 -56
-63 -5 -169 -7 -235 -4 -109 6 -133 11 -270 57 -82 28 -195 68 -249 90 -54 21
-105 37 -112 34 -10 -4 -14 -25 -14 -68 0 -138 -31 -409 -62 -538 -100 -422
-354 -682 -918 -937 l-44 -20 61 -60 c66 -65 80 -102 63 -162 -18 -62 -71
-101 -139 -101 -43 0 -67 16 -221 150 l-80 68 -47 -15 c-94 -29 -226 -63 -363
-94 -25 -6 -61 -14 -80 -19 -19 -5 -55 -13 -80 -19 -124 -28 -150 -36 -150
-44 0 -29 222 -263 370 -391 127 -111 274 -220 395 -297 97 -61 303 -177 375
-211 279 -131 500 -213 763 -283 368 -97 808 -143 1187 -124 163 8 302 22 390
39 25 5 74 14 110 20 332 58 748 219 1034 398 251 158 486 382 636 606 64 95
150 254 150 278 0 20 -34 31 -245 79 -22 5 -89 22 -150 39 -187 53 -170 51
-215 19 -144 -104 -171 -119 -217 -119 -125 0 -184 131 -104 230 l31 39 -95
45 c-421 199 -675 456 -779 786 -45 141 -65 286 -92 658 -4 45 -10 72 -17 71
-7 0 -34 -11 -62 -24z m-1698 -1876 c15 -6 37 -15 48 -19 85 -33 156 -73 172
-97 12 -18 18 -46 18 -84 0 -50 -4 -62 -30 -89 -36 -38 -89 -53 -135 -40 -19
5 -76 26 -128 47 -103 41 -146 78 -158 137 -8 45 24 114 63 138 32 20 109 23
150 7z m2109 -34 c58 -44 69 -132 25 -194 -15 -21 -49 -40 -123 -69 -131 -52
-147 -56 -195 -43 -97 26 -131 142 -65 220 38 44 198 109 271 110 43 1 61 -4
87 -24z m-1024 -240 c84 -61 75 -191 -16 -235 -55 -26 -239 -29 -287 -5 -61
32 -85 109 -55 178 30 71 74 87 231 84 82 -2 105 -6 127 -22z"/>
</g>
</svg>
