<?xml version="1.0" standalone="no"?>
<!DOCTYPE svg PUBLIC "-//W3C//DTD SVG 20010904//EN"
 "http://www.w3.org/TR/2001/REC-SVG-20010904/DTD/svg10.dtd">
<svg version="1.0" xmlns="http://www.w3.org/2000/svg"
 width="1600.000000pt" height="1562.000000pt" viewBox="0 0 1600.000000 1562.000000"
 preserveAspectRatio="xMidYMid meet">

<g transform="translate(0.000000,1562.000000) scale(0.100000,-0.100000)"
fill="#000000" stroke="none">
<path d="M0 7810 l0 -7810 8000 0 8000 0 0 7810 0 7810 -8000 0 -8000 0 0
-7810z m6259 3459 c201 -31 424 -148 633 -332 114 -101 219 -252 269 -387 39
-108 63 -264 56 -366 -7 -96 -25 -146 -72 -194 -51 -53 -58 -98 -50 -297 l7
-172 -26 -26 c-22 -22 -34 -25 -94 -25 -78 0 -92 -9 -92 -59 0 -27 -8 -42 -40
-72 -33 -32 -40 -45 -40 -77 0 -23 -8 -49 -19 -63 -17 -22 -18 -29 -5 -89 20
-90 11 -142 -31 -184 -39 -40 -89 -52 -173 -41 -54 7 -230 63 -284 91 -15 8
-29 14 -32 14 -19 0 -122 -292 -110 -311 3 -5 19 -9 36 -9 54 0 272 -48 364
-81 234 -82 389 -203 434 -338 l13 -41 41 8 c23 4 111 7 196 6 279 -1 454 -41
1059 -239 177 -58 331 -105 342 -105 11 0 96 38 190 85 268 135 454 206 609
236 99 19 276 15 460 -11 205 -28 531 -30 870 -5 511 37 612 71 763 260 108
136 147 164 329 239 93 39 141 51 256 67 42 6 124 26 181 45 164 53 231 42
231 -40 0 -94 -138 -186 -317 -210 -114 -16 -133 -24 -163 -66 -31 -43 -24
-81 20 -103 54 -28 220 -17 370 24 63 17 145 33 183 34 l67 3 28 53 c34 66 69
88 110 73 27 -10 31 -9 47 18 9 17 32 36 50 44 19 7 63 36 98 63 77 58 117 70
152 47 65 -43 40 -119 -89 -268 l-40 -47 3 -90 c2 -73 -2 -107 -25 -186 -37
-131 -66 -175 -144 -214 -35 -17 -69 -40 -77 -51 -19 -27 -61 -48 -125 -61
-38 -8 -66 -23 -98 -51 -50 -45 -168 -118 -191 -118 -8 0 -23 -7 -33 -15 -11
-9 -41 -15 -68 -15 -26 0 -48 -4 -48 -9 0 -5 -12 -23 -26 -40 -25 -30 -28 -31
-102 -30 -76 2 -78 2 -115 41 l-38 40 -50 -11 c-76 -17 -266 -14 -328 5 l-53
15 -99 -50 c-113 -58 -211 -90 -400 -130 -126 -27 -140 -33 -233 -92 -304
-191 -701 -338 -1185 -440 -135 -29 -320 -35 -391 -14 -74 22 -713 66 -975 67
-153 1 -239 -4 -364 -20 -307 -41 -581 -26 -877 49 -69 17 -128 29 -131 25
-13 -13 11 -58 78 -141 204 -256 423 -646 544 -970 20 -55 40 -105 44 -112 3
-6 70 -43 149 -83 350 -175 607 -394 966 -823 292 -349 386 -443 913 -909 305
-269 374 -321 397 -298 15 15 81 12 121 -4 18 -8 36 -12 39 -9 8 8 595 3 670
-7 80 -10 106 -26 154 -95 18 -27 46 -55 60 -61 32 -14 74 -58 132 -139 24
-33 70 -93 102 -132 116 -143 123 -168 88 -339 -28 -137 -57 -220 -91 -259
-24 -27 -30 -44 -35 -106 -10 -109 -43 -159 -106 -159 -17 0 -29 -6 -32 -18
-10 -29 -47 -57 -93 -71 -39 -11 -45 -17 -96 -110 -30 -54 -64 -124 -77 -154
-20 -49 -22 -59 -10 -87 19 -45 51 -57 183 -63 145 -8 189 -20 229 -66 31 -35
31 -35 24 -121 -8 -105 -2 -122 69 -216 30 -39 62 -88 70 -108 15 -35 15 -40
-2 -74 -13 -27 -29 -41 -58 -51 -22 -8 -42 -16 -43 -17 -2 -1 8 -20 22 -41 31
-45 34 -102 8 -152 -23 -47 -61 -72 -116 -78 -45 -5 -47 -7 -41 -33 3 -14 1
-40 -5 -56 -13 -35 -58 -84 -77 -84 -8 0 -13 -12 -13 -33 0 -18 -7 -42 -15
-53 -22 -29 -18 -34 25 -34 71 0 200 81 330 205 74 71 118 95 177 95 13 0 31
13 44 31 25 35 89 68 132 69 47 0 67 17 67 55 0 36 20 55 59 55 11 0 22 9 26
20 3 11 35 59 69 107 35 49 78 114 96 146 38 67 61 84 84 61 9 -8 16 -18 16
-20 0 -15 -52 -103 -115 -194 -73 -107 -110 -170 -100 -170 4 0 26 12 51 26
53 31 94 27 94 -9 0 -24 -30 -57 -87 -96 -18 -12 -38 -34 -45 -49 -7 -15 -25
-33 -40 -40 -16 -7 -31 -26 -38 -47 -6 -20 -27 -52 -46 -72 -25 -27 -32 -39
-23 -47 8 -8 15 -4 27 14 36 54 62 72 90 65 73 -18 99 -55 73 -103 -8 -15 -7
-23 3 -31 10 -9 19 -3 37 24 27 39 49 50 84 41 24 -6 41 -44 47 -106 l3 -25
124 -3 c115 -2 123 -1 116 15 -13 32 -10 55 8 67 16 9 25 4 60 -37 41 -46 77
-61 77 -32 0 8 -7 33 -16 55 -13 32 -14 43 -4 55 18 22 28 19 90 -24 30 -21
82 -53 114 -70 58 -31 61 -31 202 -31 79 0 144 3 144 8 0 4 -43 36 -95 70 -76
51 -95 69 -95 88 0 40 48 32 122 -21 35 -24 100 -67 144 -95 l82 -50 176 0
176 0 0 -55 0 -55 -4957 2 -4958 3 -3 53 -3 52 490 0 c270 0 491 3 491 8 0 4
-10 18 -21 32 -52 64 -143 208 -184 288 -124 248 -150 484 -105 957 38 395 49
530 62 730 15 236 15 1018 0 1305 -10 194 -10 195 -56 330 -259 755 -376 1401
-376 2080 0 268 15 478 47 640 13 65 16 130 14 275 -7 517 111 934 383 1350
43 66 155 223 248 348 354 475 419 618 489 1075 56 369 101 536 189 717 92
188 222 321 395 405 175 85 308 103 524 69z m6021 -3804 c18 -22 8 -50 -19
-50 -28 0 -47 25 -38 49 8 20 40 21 57 1z m-125 -14 c7 -24 -16 -91 -37 -104
-12 -8 -21 -7 -33 3 -17 14 -14 64 6 102 13 24 56 23 64 -1z m129 -157 c10
-26 -5 -45 -33 -42 -31 4 -41 36 -16 54 19 14 41 9 49 -12z m-104 -16 c22 -36
12 -68 -21 -68 -28 0 -57 63 -39 85 19 23 38 18 60 -17z m-5 -189 c7 -33 20
-55 48 -78 49 -43 51 -89 7 -149 -32 -45 -63 -54 -79 -24 -8 14 -4 27 14 55
14 20 25 39 25 43 0 4 -17 23 -39 43 -28 26 -40 47 -46 78 -14 89 50 119 70
32z m115 26 c26 -31 -18 -71 -47 -43 -12 12 -13 20 -4 37 14 25 34 27 51 6z
m-141 -189 c23 -28 -17 -68 -45 -45 -15 12 -19 41 -7 52 11 12 40 8 52 -7z
m109 -221 c3 -37 -1 -52 -14 -62 -27 -20 -54 1 -54 43 0 49 16 76 43 72 19 -3
22 -10 25 -53z m-184 -17 c8 -14 7 -21 -6 -34 -30 -30 -75 9 -48 42 16 18 39
15 54 -8z m156 -213 c10 -12 8 -36 -6 -121 -21 -116 -38 -144 -70 -112 -15 15
-16 25 -5 95 19 123 29 153 50 153 10 0 24 -7 31 -15z m3 -430 c10 -90 4 -115
-28 -115 -31 0 -33 5 -41 89 -8 78 3 104 40 99 18 -3 22 -13 29 -73z m67 -190
c19 -23 8 -50 -20 -50 -19 0 -26 6 -28 24 -5 35 26 53 48 26z m-95 -79 c0 -35
-5 -52 -17 -59 -24 -16 -48 8 -48 48 0 52 9 66 39 63 24 -3 26 -7 26 -52z m34
-145 c7 -13 6 -23 -3 -36 -18 -25 -56 -11 -56 20 0 36 42 48 59 16z m-31 -114
c33 -39 25 -107 -13 -107 -35 0 -60 81 -33 108 15 15 33 15 46 -1z m42 -178
c0 -24 -27 -36 -48 -22 -23 14 -25 29 -7 47 21 20 55 5 55 -25z m-76 -71 c8
-14 7 -21 -6 -34 -30 -30 -75 9 -48 42 16 18 39 15 54 -8z m65 -202 c23 -28
-17 -68 -45 -45 -15 12 -19 41 -7 52 11 12 40 8 52 -7z m-34 -121 c0 -25 -4
-30 -25 -30 -19 0 -26 6 -28 24 -4 25 13 43 38 38 9 -1 15 -13 15 -32z m53
-142 c14 -24 -6 -61 -41 -79 -26 -14 -31 -14 -53 1 -48 31 -40 67 20 84 47 14
64 13 74 -6z m-31 -159 c10 -27 -14 -64 -42 -64 -31 0 -42 23 -27 56 13 28 59
34 69 8z m-29 -102 c7 -5 15 -38 19 -74 5 -59 4 -67 -14 -77 -34 -18 -52 6
-55 74 -3 78 12 101 50 77z m18 -256 c15 -12 17 -18 8 -33 -16 -27 -51 -29
-59 -3 -6 20 9 50 24 50 4 0 16 -6 27 -14z m14 -166 c16 -30 9 -121 -11 -133
-35 -22 -49 -2 -49 71 0 38 3 72 7 75 13 14 43 6 53 -13z m14 -285 c9 -25 -5
-45 -30 -45 -14 0 -27 7 -30 15 -10 25 4 45 30 45 13 0 26 -7 30 -15z m5 -169
c23 -28 -17 -68 -45 -45 -15 12 -19 41 -7 52 11 12 40 8 52 -7z m-7 -296 c10
-101 5 -122 -29 -118 -19 2 -29 11 -34 28 -9 34 -11 155 -2 164 4 4 19 6 33 4
24 -3 25 -7 32 -78z m16 -342 c17 -17 15 -63 -4 -79 -36 -30 -73 41 -39 75 20
19 27 20 43 4z m-28 -363 c15 -18 7 -43 -16 -52 -24 -9 -46 24 -33 48 12 23
32 24 49 4z m15 -225 c13 -20 -6 -50 -31 -50 -26 0 -40 20 -30 45 6 17 51 20
61 5z m-1 -261 c14 -17 29 -42 32 -55 13 -53 -49 -74 -85 -28 -22 28 -37 86
-26 103 13 21 53 11 79 -20z m0 -231 c9 -14 5 -23 -17 -45 -22 -22 -31 -26
-45 -17 -25 16 -26 40 -2 64 24 24 48 23 64 -2z m-23 -168 c10 -6 19 -17 19
-25 0 -20 -44 -47 -64 -39 -21 8 -21 50 2 63 21 13 20 13 43 1z m9 -177 c45
-39 51 -76 15 -81 -26 -4 -115 65 -115 88 0 43 49 40 100 -7z m58 -125 c5 -7
13 -32 17 -55 4 -24 17 -57 31 -75 69 -95 77 -110 78 -146 1 -33 -2 -37 -25
-40 -23 -3 -29 3 -43 40 -10 23 -33 59 -51 80 -45 50 -82 177 -58 201 11 11
40 8 51 -5z m310 -391 c75 -76 85 -99 50 -121 -15 -9 -31 2 -103 74 -86 85
-99 111 -68 129 24 13 36 4 121 -82z m-301 57 c7 -18 -6 -45 -24 -51 -6 -2
-18 3 -27 12 -12 12 -13 21 -6 36 13 23 48 25 57 3z m77 -126 c8 -14 7 -21 -6
-34 -30 -30 -75 9 -48 42 16 18 39 15 54 -8z m-339 -48 c8 -27 -1 -40 -30 -40
-25 0 -38 21 -29 45 9 22 51 19 59 -5z m165 1 c7 -15 6 -24 -6 -36 -9 -9 -21
-14 -27 -12 -18 6 -31 33 -24 51 9 22 44 20 57 -3z m577 -47 c40 -25 78 -54
83 -64 15 -28 12 -57 -6 -64 -17 -6 -50 8 -56 24 -1 5 -32 29 -67 52 -36 24
-67 48 -68 54 -4 11 22 44 34 44 4 0 39 -21 80 -46z m-531 -158 c17 -13 22
-13 42 0 63 41 96 -21 33 -63 -43 -29 -78 -29 -108 -1 -34 31 -30 72 8 77 3 1
14 -5 25 -13z"/>
<path d="M5910 11194 c-131 -37 -307 -142 -365 -219 -31 -40 -31 -43 3 -47 20
-2 28 -9 30 -27 5 -31 -12 -41 -73 -41 -45 0 -53 -3 -68 -29 -9 -16 -17 -31
-17 -34 0 -2 48 -2 108 1 93 4 109 2 122 -13 10 -12 11 -21 3 -33 -8 -13 -33
-19 -114 -24 -153 -11 -160 -13 -187 -82 -13 -32 -22 -59 -20 -61 2 -2 25 1
52 6 315 59 627 9 894 -143 57 -33 72 -46 72 -65 0 -42 -28 -38 -129 15 -117
62 -277 117 -389 133 -139 20 -497 -3 -527 -33 -3 -2 -8 -19 -11 -38 -7 -31
-6 -33 17 -27 118 27 242 47 302 49 69 3 72 2 75 -21 5 -30 -8 -38 -77 -46
-142 -16 -331 -60 -343 -78 -4 -7 -8 -23 -8 -36 0 -18 4 -22 18 -16 45 17 226
56 273 58 52 2 54 1 57 -25 3 -22 -2 -28 -20 -33 -13 -2 -66 -14 -118 -25
-171 -37 -230 -58 -230 -82 0 -16 4 -19 23 -14 163 44 276 69 290 63 22 -8 22
-44 0 -56 -10 -5 -70 -23 -133 -39 -63 -17 -133 -36 -155 -44 -44 -15 -37 4
-75 -203 -56 -300 -165 -516 -460 -910 l-130 -173 0 -97 0 -97 67 61 c68 61
105 76 117 45 3 -9 6 -17 6 -18 0 -2 -42 -46 -94 -99 -90 -93 -94 -98 -98
-146 l-3 -50 78 85 c77 82 101 96 125 72 19 -19 15 -26 -46 -91 -32 -34 -85
-95 -116 -135 -58 -74 -78 -84 -100 -50 -8 14 -4 27 22 64 18 25 27 44 20 41
-7 -2 -21 0 -31 5 -14 7 -24 5 -38 -11 -25 -27 -45 -27 -59 0 -10 17 -5 28 28
72 37 49 40 58 45 140 4 48 3 87 -1 87 -18 -1 -149 -221 -218 -365 -177 -374
-245 -859 -178 -1279 16 -104 16 -110 -1 -122 -12 -9 -23 -10 -35 -4 -22 12
-25 -1 -41 -181 -15 -171 -6 -684 15 -874 21 -181 36 -296 42 -317 3 -9 35
-27 79 -43 78 -29 101 -54 73 -81 -12 -12 -22 -11 -73 6 -70 24 -67 24 -62 3
3 -10 8 -35 12 -55 5 -34 10 -38 48 -48 23 -6 72 -20 110 -31 60 -17 67 -22
67 -45 0 -41 -22 -41 -179 2 -23 7 -23 6 -16 -37 4 -24 12 -49 18 -56 7 -6 68
-23 137 -38 130 -28 157 -43 139 -76 -12 -24 -22 -24 -149 5 -58 13 -106 23
-107 22 -1 -1 0 -19 4 -39 5 -36 8 -38 72 -56 82 -25 245 -58 329 -67 78 -8
104 -29 83 -63 -8 -13 -24 -13 -112 -3 -56 7 -154 24 -217 38 -63 14 -116 24
-118 22 -6 -7 28 -122 40 -135 6 -6 79 -22 161 -34 123 -19 201 -23 434 -25
161 -2 288 -7 294 -13 5 -5 6 -18 2 -29 -9 -31 -61 -35 -353 -29 -178 4 -295
12 -382 25 -69 11 -128 18 -132 16 -4 -3 4 -35 16 -72 l23 -67 149 -17 c185
-22 522 -25 702 -8 122 12 134 12 150 -4 27 -27 4 -50 -59 -58 -244 -30 -569
-29 -828 3 -46 5 -85 8 -87 6 -2 -2 8 -38 22 -79 l25 -76 87 -9 c130 -12 559
-9 706 5 115 12 131 11 145 -3 22 -22 4 -48 -40 -57 -88 -18 -489 -31 -674
-22 -104 6 -191 9 -193 8 -2 -1 6 -28 17 -60 l20 -59 58 -8 c32 -5 197 -9 367
-11 278 -2 310 -3 320 -19 8 -13 7 -21 -7 -34 -16 -16 -43 -18 -290 -18 -150
0 -305 3 -344 8 -53 5 -73 4 -73 -4 0 -7 9 -43 21 -82 l21 -70 261 7 c144 3
285 10 312 14 l50 7 71 135 c38 74 103 189 144 255 146 237 234 393 316 555
45 91 81 166 79 168 -1 2 -34 -5 -73 -14 -77 -18 -102 -15 -102 14 0 30 18 39
121 63 l95 21 33 80 c17 44 30 83 27 85 -3 3 -24 -2 -47 -11 -47 -19 -72 -8
-67 28 2 16 22 28 80 51 69 27 79 34 93 68 8 20 15 40 15 42 0 3 -18 2 -39 -1
-34 -5 -40 -3 -46 15 -9 30 5 43 65 65 36 13 54 26 61 43 16 43 12 50 -28 49
-34 -1 -38 2 -38 24 0 20 10 30 55 52 30 15 54 32 52 39 -1 6 -20 37 -41 68
-21 31 -82 134 -135 230 -145 261 -191 319 -311 400 -122 81 -235 117 -423
131 -68 5 -128 12 -133 15 -16 11 -9 44 12 55 15 9 53 9 142 1 l121 -11 50 49
c67 64 90 76 110 55 24 -23 21 -30 -31 -79 l-48 -44 28 -10 c40 -15 39 -16
105 30 61 42 86 46 99 13 4 -12 -6 -28 -36 -53 l-43 -37 53 -33 c45 -28 56
-31 77 -21 32 14 55 -4 49 -38 -4 -19 9 -41 54 -95 55 -66 99 -137 239 -387
29 -52 64 -110 77 -128 24 -31 27 -33 71 -26 52 7 97 24 126 47 19 14 19 16
-22 81 -46 73 -49 87 -28 105 23 19 48 -1 91 -71 259 -426 837 -1119 998
-1197 75 -36 139 -26 246 39 54 33 86 38 95 14 11 -29 -13 -51 -107 -99 -89
-45 -98 -47 -158 -43 -100 6 -146 35 -294 183 -141 141 -266 283 -437 497
l-109 136 -47 -26 c-26 -14 -48 -26 -49 -26 -1 -1 36 -34 83 -74 115 -99 195
-195 335 -403 137 -204 208 -295 311 -396 68 -67 78 -74 133 -84 33 -6 105 -9
160 -7 l100 3 3 -26 c4 -34 -11 -40 -125 -46 -51 -3 -93 -8 -93 -12 1 -3 26
-26 56 -51 65 -53 117 -63 253 -49 90 9 111 3 111 -32 0 -25 -27 -35 -123 -44
l-78 -7 65 -49 c36 -27 77 -54 91 -59 37 -14 105 -12 209 5 92 14 126 9 126
-20 0 -25 -42 -44 -115 -51 -116 -12 -117 -13 -28 -72 91 -60 103 -62 261 -35
96 16 103 16 119 0 28 -28 -5 -52 -93 -67 -41 -7 -77 -16 -79 -21 -3 -4 36
-31 85 -59 l91 -52 97 17 c171 29 171 29 178 10 13 -32 -11 -50 -84 -65 -39
-8 -73 -17 -76 -20 -2 -3 29 -23 70 -44 l74 -38 90 26 c50 14 97 26 105 26 7
0 15 10 17 22 4 28 52 38 61 14 9 -23 -3 -46 -23 -46 -11 0 -20 -10 -24 -24
-5 -19 -18 -28 -58 -41 -29 -10 -56 -21 -61 -24 -4 -4 20 -20 53 -36 58 -28
63 -28 108 -16 77 22 97 24 110 8 17 -20 6 -42 -26 -56 -33 -16 -51 -6 228
-126 124 -53 292 -128 373 -167 81 -39 150 -68 153 -66 8 9 -104 106 -181 158
-40 27 -121 75 -181 107 -94 50 -109 62 -109 83 0 44 37 36 168 -35 209 -114
310 -196 405 -325 76 -104 110 -138 164 -166 79 -40 123 -46 443 -53 293 -6
313 -8 360 -29 58 -27 90 -55 149 -132 41 -52 43 -60 55 -158 15 -126 17 -132
46 -132 30 0 35 20 35 167 l0 123 -82 164 c-70 140 -80 167 -69 180 33 39 49
22 136 -155 l85 -171 0 -134 c0 -129 7 -158 28 -116 5 9 12 52 16 96 3 46 18
115 36 166 16 48 30 96 30 107 0 11 -20 64 -46 117 -25 54 -58 139 -75 190
-20 63 -36 96 -52 105 -14 10 -78 18 -186 25 -140 9 -165 14 -175 29 -27 45
68 58 265 38 96 -10 158 -36 177 -73 6 -12 28 -70 48 -127 19 -58 50 -134 68
-170 l33 -65 12 52 c20 94 16 113 -38 183 -28 35 -90 116 -138 179 -49 63
-100 120 -113 126 -14 7 -67 14 -117 17 -82 4 -93 3 -93 -12 0 -20 -19 -41
-36 -41 -6 0 -28 14 -49 30 -45 36 -76 40 -68 10 7 -24 -13 -50 -38 -50 -10 0
-34 18 -54 39 -24 26 -51 43 -80 50 -65 16 -68 15 -61 -21 7 -42 -5 -61 -35
-56 -21 3 -40 28 -61 81 -5 12 -82 36 -90 29 -4 -4 -1 -34 7 -67 15 -65 7 -95
-24 -95 -25 0 -35 14 -61 93 -22 70 -41 97 -66 97 -17 0 -17 -13 -2 -80 10
-44 9 -53 -4 -67 -21 -20 -45 -11 -59 24 -64 157 -41 132 -509 543 -470 413
-587 530 -880 881 -84 101 -223 254 -309 339 -279 278 -491 418 -856 565 -136
55 -150 63 -150 85 0 34 36 37 105 10 29 -11 54 -19 57 -17 14 15 -164 404
-267 582 -152 264 -294 453 -482 643 -114 113 -138 134 -138 115 0 -14 -30
-196 -41 -250 -9 -48 -15 -57 -65 -92 -62 -44 -217 -105 -245 -96 -12 4 -19
16 -19 30 0 20 11 28 85 56 95 36 162 75 170 100 16 50 31 168 21 162 -6 -4
-51 -34 -101 -67 -97 -65 -263 -150 -363 -186 -59 -21 -64 -22 -80 -6 -27 27
-4 47 114 97 121 50 165 74 306 166 82 54 101 62 118 53 16 -9 20 -7 24 12 7
31 14 138 9 138 -2 0 -58 -38 -126 -84 -283 -194 -492 -298 -695 -346 -47 -11
-56 -10 -70 4 -23 22 -6 48 39 60 220 56 440 167 723 365 67 47 95 62 114 58
l25 -5 -6 157 c-21 578 -295 977 -699 1016 -34 3 -73 8 -84 10 -25 5 -36 27
-27 51 5 14 19 16 97 11 50 -3 99 -8 109 -12 36 -15 19 84 -66 371 -62 210
-69 253 -74 476 -6 225 -1 273 25 287 40 22 44 4 46 -245 2 -131 6 -248 10
-259 8 -22 330 -199 350 -192 6 2 -36 27 -94 56 -133 67 -181 106 -217 179
-25 51 -28 69 -31 177 -2 85 4 176 22 310 24 184 25 211 6 200 -19 -12 -92 17
-129 50 -88 80 -126 258 -81 377 50 135 190 189 283 109 18 -15 70 -40 118
-55 134 -43 173 -74 134 -106 -13 -10 -30 -7 -95 19 -43 17 -81 31 -84 31 -2
0 -3 -30 -3 -66 2 -69 3 -68 -53 -94 -8 -4 -16 -16 -18 -26 -2 -16 10 -21 90
-37 51 -10 99 -23 105 -29 18 -14 16 -47 -2 -55 -23 -8 -185 28 -202 46 -9 8
-24 15 -34 16 -15 1 -17 -4 -12 -28 4 -19 1 -32 -8 -38 -21 -13 -25 -12 -63
21 -47 42 -70 104 -64 175 5 64 -8 61 -23 -5 -13 -57 11 -139 54 -187 30 -32
40 -36 102 -42 57 -6 72 -5 81 7 8 12 22 14 59 9 106 -15 318 -94 329 -123 9
-23 -5 -44 -29 -44 -12 0 -52 14 -89 30 -53 24 -267 85 -272 77 0 -1 -13 -107
-28 -235 -46 -383 -32 -470 89 -548 97 -61 392 -187 515 -219 74 -19 144 -15
169 9 19 20 19 91 -1 151 -10 31 -19 41 -39 43 -14 2 -59 20 -100 40 -76 38
-96 65 -66 91 12 9 30 4 88 -24 44 -21 89 -35 111 -35 33 0 38 3 38 24 0 13
-6 28 -12 34 -14 11 -96 28 -171 37 -59 6 -67 10 -67 36 0 35 38 42 138 25
164 -28 189 -20 178 56 -19 132 -19 153 1 177 33 41 73 33 137 -27 62 -59 86
-66 86 -25 0 31 -31 297 -35 301 -3 3 -150 -24 -187 -34 -9 -3 -19 -17 -23
-32 -11 -51 -64 -131 -107 -160 -24 -16 -90 -46 -148 -67 -165 -58 -242 -109
-390 -259 -85 -86 -107 -99 -129 -72 -18 22 -5 39 112 153 93 91 229 193 256
193 5 0 12 4 15 9 3 5 -43 18 -102 31 -113 23 -139 39 -121 71 13 25 19 25
206 -17 l162 -36 58 29 c39 19 67 42 88 71 28 40 30 50 30 127 0 96 -11 118
-86 171 -73 51 -64 95 27 140 105 51 251 44 381 -18 73 -36 87 -49 78 -78 -8
-26 -41 -26 -80 0 -42 28 -149 60 -202 60 -63 0 -45 -16 34 -29 38 -7 103 -28
147 -49 l78 -36 24 27 c13 16 24 36 24 46 0 10 3 32 6 50 5 24 3 32 -12 37
-79 25 -104 52 -104 112 l0 28 -112 -1 c-98 0 -119 -4 -160 -24 -39 -20 -49
-22 -62 -11 -39 32 -5 67 98 100 52 17 169 15 206 -3 31 -16 40 -13 40 12 0 9
12 41 26 71 l25 54 -36 72 c-120 235 -442 488 -721 564 -106 30 -342 37 -424
14z m340 -39 c10 -12 10 -18 0 -30 -27 -32 -71 -8 -56 30 3 8 14 15 24 15 11
0 25 -7 32 -15z m171 -51 c9 -11 10 -20 2 -32 -13 -22 -43 -22 -56 -1 -24 38
25 68 54 33z m167 -86 c3 -22 -2 -29 -22 -34 -27 -6 -56 9 -56 30 0 21 24 37
50 34 19 -2 26 -10 28 -30z m123 -84 c22 -27 -1 -49 -52 -49 -34 0 -44 4 -47
18 -2 10 2 24 8 32 16 20 74 19 91 -1z m104 -124 c0 -18 -9 -29 -35 -42 -63
-31 -111 -17 -94 26 7 19 72 46 104 43 19 -2 25 -8 25 -27z m103 -119 c8 -4
12 -19 10 -32 -2 -20 -13 -26 -63 -40 -33 -9 -72 -21 -87 -27 -36 -15 -58 -6
-58 24 0 27 32 47 112 68 64 18 69 18 86 7z m-528 -136 c15 -8 30 -20 33 -27
6 -18 -11 -48 -28 -48 -23 0 -84 32 -89 47 -16 40 30 56 84 28z m598 -14 c8
-4 12 -19 10 -32 -3 -23 -7 -24 -98 -30 -52 -3 -110 -12 -128 -19 -29 -11 -36
-10 -49 3 -25 25 -7 52 45 69 50 17 198 23 220 9z m-1608 -647 c63 -40 113
-104 108 -136 -6 -41 -37 -33 -85 21 -25 29 -63 61 -85 72 -41 21 -54 39 -44
64 9 25 48 17 106 -21z m863 -53 c190 -49 227 -63 227 -90 0 -35 -29 -41 -95
-20 -49 16 -219 59 -331 84 -24 5 -36 27 -28 50 9 24 61 18 227 -24z m-904
-85 c47 -25 103 -94 99 -124 -5 -45 -37 -40 -81 12 -22 27 -50 49 -69 54 -36
9 -54 32 -45 56 8 20 58 21 96 2z m1643 -73 c22 -20 23 -46 3 -63 -20 -16 -43
-6 -57 24 -8 20 -8 29 2 41 16 19 29 19 52 -2z m-1612 -83 c11 -7 14 -33 12
-132 -3 -144 5 -184 80 -371 47 -118 52 -126 68 -112 22 20 38 19 78 -5 24
-15 32 -27 30 -43 -4 -28 -37 -33 -78 -12 -32 16 -32 16 -25 -7 20 -62 23 -65
67 -70 61 -7 102 -29 106 -56 5 -30 -19 -37 -74 -22 -52 15 -57 12 -48 -24 5
-22 12 -26 41 -26 67 0 127 -58 89 -86 -9 -6 -25 -10 -34 -7 -14 3 -24 -8 -42
-46 -18 -40 -28 -51 -47 -51 -14 0 -26 7 -29 18 -4 9 -12 31 -19 47 -7 17 -16
53 -19 80 -4 28 -16 83 -28 124 -21 80 -125 334 -138 339 -4 1 -15 9 -25 16
-16 11 -17 18 -7 42 9 22 8 41 -2 79 -11 43 -17 50 -45 58 -27 7 -32 12 -29
35 2 18 10 28 28 32 22 5 25 12 28 52 3 43 1 46 -28 56 -55 20 -48 72 10 72
15 0 33 7 40 15 14 17 20 18 40 5z m258 -320 c35 -21 44 -63 16 -74 -18 -7
-90 27 -97 46 -7 20 12 48 31 48 9 0 32 -9 50 -20z m875 -63 c62 -40 81 -61
73 -82 -11 -31 -37 -27 -101 15 -49 32 -65 48 -65 65 0 21 11 32 33 34 4 1 31
-14 60 -32z m-894 -91 c51 -27 63 -65 25 -80 -19 -7 -93 30 -101 49 -15 42 24
57 76 31z m-445 -301 c9 -24 -3 -43 -35 -54 -54 -19 -89 19 -49 51 27 22 76
23 84 3z m165 -199 c15 -18 4 -45 -23 -51 -11 -3 -43 -10 -71 -15 -27 -6 -81
-25 -118 -42 -64 -29 -69 -30 -85 -15 -24 25 -8 46 62 81 96 49 212 70 235 42z
m-75 -112 c9 -3 16 -17 16 -31 0 -21 4 -24 23 -20 12 3 56 9 97 13 81 7 106
-4 98 -43 -3 -15 -18 -19 -83 -26 -99 -9 -163 -29 -239 -74 -66 -38 -99 -40
-104 -6 -3 18 9 31 60 64 36 23 52 38 38 35 -68 -17 -76 -17 -89 -2 -27 32 -2
52 99 81 54 16 64 17 84 9z m-399 -102 c3 -9 -6 -32 -25 -56 -31 -42 -95 -137
-144 -214 -28 -45 -50 -51 -70 -20 -12 19 5 54 82 172 84 128 137 168 157 118z
m-91 -448 c13 -12 16 -39 16 -123 0 -151 36 -283 116 -419 l25 -43 38 22 c45
25 75 22 79 -8 2 -16 -6 -28 -32 -45 -20 -13 -36 -25 -36 -28 1 -11 60 -70 71
-70 6 0 55 21 109 46 106 50 143 54 148 16 3 -20 -9 -29 -97 -70 -56 -26 -101
-49 -101 -52 0 -3 22 -20 48 -38 l49 -33 79 31 c70 28 263 125 381 191 39 22
43 23 59 7 34 -34 5 -58 -211 -169 -71 -36 -152 -75 -178 -84 -26 -10 -44 -21
-40 -26 4 -4 35 -18 67 -32 l59 -25 51 21 c152 63 395 201 604 343 68 46 131
84 142 84 28 0 36 -38 14 -60 -25 -23 -233 -162 -354 -235 -52 -32 -162 -91
-245 -132 -82 -40 -158 -78 -167 -83 -29 -16 -52 -12 -136 24 -280 120 -482
332 -570 599 -60 179 -66 407 -11 407 4 0 15 -7 23 -16z m-246 -116 c4 -33
-18 -41 -93 -36 -55 3 -78 25 -55 53 10 12 28 15 79 13 64 -3 66 -4 69 -30z
m-110 -70 c22 -22 13 -46 -19 -57 -47 -16 -106 -14 -113 4 -8 23 4 45 28 50
11 2 30 6 41 8 37 8 51 7 63 -5z m-100 -151 c3 -30 9 -40 28 -48 32 -11 29
-49 -3 -64 -18 -7 -23 -18 -23 -45 0 -65 9 -80 45 -80 38 0 59 -21 50 -50 -5
-15 -15 -20 -41 -20 -29 0 -34 -3 -30 -17 3 -10 8 -30 12 -45 l6 -28 113 0
c90 0 117 -3 129 -16 18 -18 18 -17 10 -38 -5 -13 -24 -16 -109 -16 -57 0
-106 -3 -108 -7 -2 -5 2 -23 10 -42 l14 -34 124 5 c128 5 155 0 155 -32 0 -29
-17 -34 -133 -40 l-107 -5 25 -37 c25 -38 27 -38 93 -38 37 0 84 -3 105 -6 46
-8 65 -35 41 -59 -14 -13 -32 -15 -118 -10 -55 4 -110 8 -121 10 -37 8 -145
201 -184 330 -33 105 -51 227 -51 337 0 110 10 141 43 136 18 -2 23 -11 25
-41z m2 -1053 c11 -11 12 -19 4 -32 -22 -34 -128 -27 -140 10 -10 32 19 48 75
41 25 -3 53 -12 61 -19z m563 -34 c53 -24 61 -33 52 -60 -10 -31 -70 -21 -117
18 -22 18 -22 26 -2 46 19 20 13 20 67 -4z m-399 -123 c10 -7 16 -22 14 -33
-3 -18 -13 -19 -138 -19 -135 0 -135 0 -138 24 -2 13 2 28 10 32 22 14 232 11
252 -4z m1770 -12 c8 -9 13 -22 9 -31 -3 -8 -50 -49 -105 -90 -106 -80 -143
-92 -143 -44 0 20 20 40 103 103 56 42 107 77 112 77 5 0 15 -7 24 -15z m-806
-17 c22 -22 12 -42 -71 -149 -230 -296 -395 -425 -595 -466 -217 -45 -411 83
-533 352 -26 58 -28 70 -19 104 6 22 17 42 26 45 28 11 444 7 465 -4 25 -14
24 -46 -1 -60 -12 -7 -93 -10 -213 -10 -105 0 -195 1 -200 0 -4 0 3 -17 16
-37 l24 -37 154 2 c85 1 195 5 244 8 129 7 366 25 393 29 26 4 94 60 202 165
74 72 87 79 108 58z m988 -42 c26 -20 13 -40 -65 -95 l-63 -44 56 -23 56 -23
111 71 c88 57 114 70 127 61 10 -5 18 -19 20 -30 2 -15 -17 -33 -88 -77 -50
-32 -89 -63 -88 -68 2 -6 20 -20 39 -31 l35 -20 70 47 c71 47 96 51 108 19 8
-20 -7 -37 -63 -75 -25 -17 -48 -33 -50 -35 -8 -6 62 -73 76 -73 8 0 41 19 73
42 50 35 61 39 75 28 27 -23 17 -49 -35 -86 -27 -20 -50 -39 -50 -43 0 -4 15
-21 33 -39 31 -30 35 -31 65 -20 33 13 61 5 69 -19 4 -12 -19 -39 -39 -45 -8
-3 4 -26 35 -63 50 -61 55 -80 24 -99 -16 -10 -28 0 -90 69 -228 257 -419 407
-579 456 l-68 21 -50 -37 c-55 -40 -93 -44 -98 -9 -2 11 5 27 15 36 27 23 306
218 313 218 3 0 15 -6 26 -14z m649 -135 c0 -30 -54 -66 -85 -56 -30 10 -26
51 8 70 41 22 77 16 77 -14z m85 -136 c18 -21 6 -43 -34 -62 -29 -13 -38 -14
-51 -3 -22 18 -19 36 13 59 32 24 55 26 72 6z m78 -132 c5 -10 7 -24 5 -31 -7
-18 -59 -43 -77 -36 -26 10 -19 52 12 68 36 20 49 20 60 -1z m180 -515 c112
-150 225 -277 338 -379 82 -75 84 -75 191 -60 58 8 83 -1 83 -29 0 -25 -29
-40 -74 -40 -44 0 -45 -9 -3 -37 32 -22 33 -22 107 -6 41 9 93 17 115 17 34 1
40 -2 43 -21 4 -26 -13 -36 -90 -53 -32 -7 -58 -16 -58 -19 0 -3 20 -19 45
-35 56 -35 69 -33 213 29 109 47 132 48 132 3 0 -14 -21 -29 -82 -57 -46 -21
-94 -43 -107 -48 -23 -9 -22 -10 28 -42 60 -39 82 -38 199 12 67 28 74 29 89
14 25 -25 8 -46 -67 -81 -61 -28 -69 -34 -56 -46 20 -16 21 -56 1 -63 -8 -3
-39 7 -69 23 -46 25 -62 28 -103 23 -38 -4 -52 -2 -63 12 -11 14 -11 20 -1 37
7 11 11 21 9 23 -34 28 -87 50 -108 45 -36 -10 -60 6 -60 38 0 21 -11 34 -50
60 -41 26 -60 32 -104 32 -39 0 -55 4 -60 15 -7 19 3 45 18 45 6 1 -6 16 -28
35 -35 31 -45 34 -110 37 l-71 3 0 30 c0 25 5 31 29 35 l30 5 -45 38 c-70 60
-204 212 -302 342 -98 131 -113 156 -104 179 16 40 47 15 145 -116z m352 -738
c0 -34 -161 -135 -235 -147 -27 -4 -36 -2 -41 12 -11 27 7 46 59 66 26 11 77
39 113 64 54 36 69 43 85 34 10 -5 19 -18 19 -29z m128 -117 c6 -40 -121 -112
-226 -129 -28 -4 -41 -2 -51 10 -22 27 -5 44 66 65 37 11 88 34 113 50 53 35
93 37 98 4z m837 -93 c0 -20 -10 -30 -50 -49 -27 -13 -68 -25 -90 -25 -36 -1
-40 1 -40 24 0 21 10 29 65 52 80 34 115 34 115 -2z m-675 -81 c0 -38 -233
-125 -283 -106 -20 7 -22 40 -4 54 6 5 37 15 67 22 30 6 84 24 120 40 70 30
100 27 100 -10z m793 -61 c16 -24 -6 -44 -64 -58 -62 -15 -81 -8 -77 27 2 23
10 29 48 39 57 16 80 13 93 -8z m-635 -80 c40 -40 -5 -69 -145 -96 -78 -15
-84 -15 -100 1 -29 28 -5 50 68 64 35 7 84 19 109 27 58 18 54 18 68 4z m71
-182 c15 -18 4 -45 -23 -51 -71 -14 -99 -15 -112 -4 -21 17 -17 48 9 59 35 14
113 12 126 -4z m165 -108 c16 -26 -12 -49 -67 -55 -40 -5 -46 -3 -52 16 -8 27
8 49 43 54 44 7 64 3 76 -15z m134 -87 c8 -4 12 -19 10 -32 -2 -16 -12 -25
-36 -31 -40 -11 -65 5 -60 36 4 27 59 44 86 27z m127 -141 c0 -20 -6 -26 -26
-28 -17 -2 -29 3 -32 12 -11 28 4 47 32 44 20 -2 26 -8 26 -28z m921 -268
c208 -88 254 -114 287 -162 24 -34 21 -63 -9 -99 -19 -23 -34 -31 -60 -31 -42
0 -57 24 -44 71 6 18 8 41 5 50 -6 17 -82 55 -263 129 -103 43 -120 56 -108
85 10 26 49 17 192 -43z m902 -271 c26 -27 32 -29 172 -40 156 -12 181 -22
159 -64 -10 -17 -18 -19 -63 -14 -46 5 -53 3 -62 -16 -14 -33 -41 -32 -71 2
-32 37 -55 39 -68 9 -17 -39 -46 -28 -92 37 -46 66 -52 89 -25 104 23 14 20
15 50 -18z m-169 -46 c46 -50 52 -88 15 -93 -15 -2 -34 11 -63 44 -46 53 -47
56 -25 78 22 23 27 21 73 -29z"/>
<path d="M4810 6069 c-52 -4 -168 -8 -257 -9 -90 -1 -163 -6 -163 -11 0 -19
67 -83 105 -100 55 -25 125 -24 238 5 88 23 260 96 273 117 6 10 -56 10 -196
-2z"/>
<path d="M5888 10361 c-38 -30 -62 -99 -54 -155 8 -54 26 -71 26 -26 0 40 23
90 56 121 27 26 29 38 11 63 -12 16 -14 16 -39 -3z"/>
<path d="M6940 10015 c-8 -9 -8 -15 -2 -15 18 0 42 12 42 21 0 14 -26 10 -40
-6z"/>
<path d="M5860 9086 c0 -2 21 -73 46 -158 54 -179 74 -267 74 -325 0 -44 19
-73 49 -73 14 0 22 20 39 104 12 57 37 149 56 205 l34 100 -145 76 c-142 74
-153 79 -153 71z"/>
<path d="M12365 8734 c-82 -34 -196 -63 -278 -71 -55 -5 -67 -9 -65 -22 2 -9
15 -17 33 -19 17 -2 35 -8 42 -14 20 -16 179 9 246 39 53 24 117 80 117 103 0
16 -31 11 -95 -16z"/>
<path d="M13067 8633 c-38 -28 -47 -41 -43 -57 3 -12 6 -29 6 -39 0 -10 5 -15
11 -12 13 9 99 127 99 137 0 17 -27 6 -73 -29z"/>
<path d="M11913 8630 c-28 -11 -29 -29 -3 -80 26 -51 56 -69 76 -43 17 23 17
28 -1 43 -8 7 -20 30 -25 51 -11 42 -13 43 -47 29z"/>
<path d="M6134 8596 c-9 -26 -24 -109 -21 -113 4 -4 97 101 97 110 0 10 -72
13 -76 3z"/>
<path d="M6241 8513 c-33 -37 -61 -71 -61 -75 0 -4 11 -15 24 -23 24 -16 26
-15 115 61 96 83 97 87 25 99 -41 6 -42 6 -103 -62z"/>
<path d="M11745 8548 c-60 -36 -121 -93 -141 -130 -11 -22 -12 -41 -5 -87 11
-68 19 -87 53 -118 76 -72 201 -69 259 6 71 92 65 88 87 68 21 -19 21 -28 -5
-109 -15 -50 -72 -110 -121 -129 -92 -36 -220 -29 -315 15 -57 27 -71 44 -60
72 7 18 36 15 90 -7 47 -19 50 -5 9 37 -23 23 -42 58 -53 93 -9 31 -18 58 -19
60 -2 1 -15 -9 -31 -24 -102 -98 -246 -140 -573 -169 -436 -39 -812 -41 -1038
-5 -281 44 -457 26 -702 -72 -109 -44 -420 -192 -420 -200 0 -7 125 -43 191
-54 l36 -7 6 49 c7 60 34 130 53 137 42 16 54 -20 29 -89 -8 -22 -14 -57 -15
-77 0 -39 1 -40 68 -53 l32 -7 0 74 c1 127 48 216 86 163 10 -13 9 -27 -3 -68
-10 -35 -14 -80 -12 -141 3 -75 1 -90 -13 -99 -38 -25 -500 95 -1027 268 -473
154 -661 198 -901 211 -132 8 -264 -7 -348 -38 -76 -28 -148 -101 -187 -190
-28 -66 -52 -87 -74 -65 -18 18 -13 47 25 123 40 82 107 151 179 186 41 20 45
25 40 48 -20 84 -130 185 -280 256 -138 65 -128 66 -231 -14 -49 -38 -99 -81
-112 -94 l-23 -25 51 -68 c85 -112 144 -241 190 -416 21 -79 36 -117 63 -152
20 -26 50 -71 69 -102 18 -30 36 -55 39 -55 3 0 9 38 12 84 7 78 43 230 70
286 14 30 54 39 63 15 4 -9 -5 -56 -19 -103 -62 -207 -61 -360 4 -587 30 -105
30 -104 45 -50 7 28 16 60 20 72 4 16 0 23 -15 28 -27 8 -29 55 -3 62 17 4 18
8 5 56 -26 101 -8 241 47 363 29 65 51 82 74 59 16 -16 16 -15 -30 -145 -36
-100 -39 -231 -7 -301 18 -40 25 -47 59 -52 21 -4 39 -5 41 -4 1 2 -3 31 -9
64 -13 73 -2 145 38 233 26 59 42 74 68 64 26 -10 24 -30 -7 -100 -35 -78 -42
-160 -18 -231 14 -42 30 -53 79 -53 22 0 23 3 17 40 -9 54 1 80 30 80 26 0 29
-6 43 -90 l7 -45 95 -14 c58 -8 199 -14 360 -15 260 -1 369 8 608 51 l34 6 -7
58 c-6 51 -4 60 10 66 29 10 49 -11 61 -63 l10 -49 77 -3 c42 -2 77 0 77 3 0
3 -7 22 -15 41 -23 55 -37 155 -24 171 13 14 45 18 53 5 3 -5 12 -41 20 -81
20 -98 51 -151 96 -166 29 -10 35 -17 35 -41 0 -34 -8 -35 -140 -14 -95 14
-180 9 -430 -28 -156 -22 -214 -26 -435 -26 -158 -1 -302 4 -378 13 -138 16
-136 17 -147 -50 -7 -40 7 -104 27 -131 9 -11 31 -18 63 -19 50 -3 50 -3 48
27 -4 46 25 132 48 145 17 9 25 8 37 -5 13 -13 14 -21 3 -53 -7 -21 -11 -56
-9 -78 l3 -40 96 -3 c54 -1 175 6 270 17 287 33 384 35 734 12 176 -11 376
-23 445 -27 76 -4 150 -13 189 -25 37 -11 93 -19 136 -19 270 0 954 203 1261
375 36 20 64 38 62 40 -3 3 -280 -52 -459 -91 -35 -8 -63 19 -49 47 6 10 13
19 16 19 3 0 112 22 242 50 130 27 336 70 458 95 300 61 379 85 517 154 l117
60 43 -16 c50 -18 221 -29 303 -18 52 6 56 9 40 20 -27 20 -17 59 17 63 33 4
46 -21 28 -51 -12 -18 -11 -19 10 -14 18 5 31 -2 58 -32 30 -32 45 -39 88 -45
51 -6 53 -6 68 23 18 37 43 51 85 51 27 0 31 3 24 18 -4 9 -8 33 -8 52 -1 29
3 36 21 38 17 3 27 -6 43 -37 22 -43 29 -48 48 -29 8 8 5 18 -13 40 -14 16
-25 36 -25 44 0 8 -9 14 -20 14 -10 0 -24 9 -30 19 -12 24 21 67 74 96 32 18
37 26 62 119 15 56 37 137 50 181 12 44 20 83 18 86 -2 4 -32 1 -66 -6 -261
-54 -425 -35 -469 53 -9 18 -35 46 -57 62 -25 18 -50 49 -67 84 -15 31 -32 56
-39 55 -6 0 -33 -14 -61 -31z m420 -318 c0 -20 -6 -26 -26 -28 -30 -4 -46 22
-28 45 20 23 54 12 54 -17z m-737 -142 c4 -33 36 -23 -411 -118 -274 -59 -340
-70 -352 -60 -18 15 -19 34 -2 48 7 6 141 38 298 72 156 33 311 67 344 74 90
21 119 17 123 -16z m900 -20 c4 -34 -32 -62 -60 -47 -22 12 -23 28 -2 57 22
32 58 26 62 -10z m-305 -30 c8 -12 7 -21 -2 -32 -19 -22 -48 -20 -61 5 -23 41
38 68 63 27z m-2578 -18 c4 -6 -1 -43 -10 -83 -20 -89 -14 -141 26 -224 30
-62 42 -73 54 -53 3 6 20 10 37 10 27 0 30 3 24 23 -27 93 -36 158 -34 225 3
70 5 77 25 80 30 4 40 -19 46 -118 3 -47 14 -110 24 -140 21 -59 20 -59 99
-45 l31 5 -18 66 c-24 87 -28 192 -9 204 21 13 26 12 44 -6 10 -10 16 -33 16
-63 0 -45 23 -150 38 -176 5 -9 21 -9 69 2 l61 14 -19 54 c-25 71 -25 111 0
125 23 12 51 -10 51 -39 0 -10 7 -38 16 -64 17 -51 27 -55 85 -36 19 6 40 13
48 15 9 3 5 11 -13 25 -17 14 -26 29 -24 43 5 33 42 32 90 -3 39 -29 42 -30
76 -16 19 8 36 15 38 15 1 0 4 15 6 33 4 40 39 50 60 18 7 -12 20 -21 29 -21
19 0 31 -23 23 -44 -10 -27 -287 -132 -464 -176 -160 -40 -371 -71 -460 -68
l-75 3 -37 72 c-54 106 -60 216 -18 329 10 25 53 34 65 14z m2762 -6 c8 -22
-10 -49 -32 -49 -10 0 -22 7 -28 16 -15 24 -1 49 28 49 15 0 28 -7 32 -16z
m-687 -9 c19 -23 7 -49 -27 -59 -27 -7 -36 -18 -54 -65 -19 -50 -20 -61 -9
-101 18 -64 17 -81 -3 -94 -15 -9 -22 -7 -37 12 -33 40 -44 99 -31 161 6 30 9
56 8 58 -2 1 -29 -3 -60 -9 l-57 -12 7 -53 c5 -45 3 -54 -12 -59 -28 -11 -49
9 -58 55 -9 44 -25 52 -49 24 -26 -30 -29 -59 -12 -102 19 -49 13 -71 -20 -71
-45 0 -78 98 -56 164 21 66 62 86 258 127 210 44 197 43 212 24z m453 -57 c17
-26 1 -50 -30 -46 -34 4 -43 36 -17 55 21 15 34 13 47 -9z m-163 -10 c52 -15
80 -36 80 -59 0 -31 -25 -33 -96 -10 -70 23 -118 18 -170 -16 -34 -22 -69 -14
-69 17 0 19 10 30 45 49 71 40 123 44 210 19z m-830 -113 c0 -25 9 -64 22 -90
21 -43 21 -46 5 -62 -23 -24 -45 -9 -74 47 -42 81 -23 187 28 160 14 -8 19
-21 19 -55z m-120 10 c7 -8 10 -21 7 -30 -4 -8 1 -34 10 -58 19 -52 12 -80
-19 -75 -29 4 -59 58 -60 108 -1 60 33 90 62 55z m-2023 -287 c6 -7 15 -39 21
-71 7 -32 26 -85 43 -117 33 -62 35 -93 6 -98 -27 -5 -51 21 -82 89 -36 80
-53 173 -35 193 15 19 34 20 47 4z m179 -106 c19 -12 55 -92 52 -115 -2 -14
-11 -23 -25 -25 -39 -6 -89 102 -63 133 14 17 20 18 36 7z m1023 -130 c86 -43
104 -63 79 -89 -16 -15 -21 -15 -83 12 -102 43 -133 73 -103 103 17 17 24 15
107 -26z m-193 -13 c16 -17 51 -42 77 -55 54 -28 67 -48 44 -71 -14 -15 -20
-15 -63 2 -59 22 -134 89 -134 120 0 46 34 48 76 4z m-165 -11 c16 -18 29 -36
29 -40 0 -4 18 -19 39 -34 46 -30 57 -52 37 -72 -23 -23 -60 -7 -116 48 -54
55 -70 91 -50 115 18 22 28 19 61 -17z"/>
<path d="M12929 8538 c-12 -22 -16 -119 -9 -258 2 -57 -3 -79 -39 -174 -23
-60 -40 -111 -37 -113 10 -10 58 32 75 66 10 20 29 72 41 116 19 67 21 95 16
170 -14 204 -22 239 -47 193z"/>
<path d="M12767 8431 c-29 -66 -35 -122 -19 -162 12 -29 10 -44 -19 -135 -20
-61 -51 -235 -44 -242 2 -2 16 2 32 10 23 11 32 26 49 88 12 41 36 111 54 155
17 44 32 98 32 120 0 55 -35 218 -48 222 -6 2 -23 -23 -37 -56z"/>
<path d="M12581 8333 c-5 -21 -13 -51 -17 -68 l-7 -30 34 31 c19 18 44 37 57
43 16 8 22 20 20 34 -2 17 -11 23 -40 25 -35 3 -37 1 -47 -35z"/>
<path d="M12637 8212 c-14 -15 -33 -45 -41 -67 -8 -22 -35 -83 -60 -137 -45
-95 -46 -96 -95 -113 -55 -18 -87 -45 -55 -45 11 0 32 -16 47 -35 15 -19 33
-35 39 -35 19 0 95 68 118 105 12 20 28 74 37 123 8 48 25 120 38 160 25 79
18 92 -28 44z"/>
<path d="M6570 7438 l0 -166 33 -27 c17 -15 63 -56 101 -92 38 -35 70 -62 72
-60 6 6 -54 202 -82 271 -28 66 -74 159 -105 209 l-19 32 0 -167z"/>
<path d="M6950 7228 c-11 -24 -20 -62 -20 -86 0 -40 3 -44 35 -58 58 -24 63
-20 54 34 -4 26 -3 68 2 92 4 25 8 48 9 53 0 4 -14 7 -30 7 -27 0 -34 -6 -50
-42z"/>
<path d="M7100 7229 c-16 -29 -8 -156 11 -174 8 -7 34 -16 58 -20 40 -7 43 -6
37 11 -15 38 -18 101 -6 143 6 23 10 44 8 46 -2 2 -24 6 -50 10 -41 6 -47 5
-58 -16z"/>
<path d="M6261 5769 c-29 -16 -66 -29 -80 -29 -15 0 -31 -3 -34 -6 -3 -4 15
-31 40 -61 42 -49 49 -53 77 -47 35 7 122 49 130 62 6 10 -61 112 -72 111 -4
0 -31 -14 -61 -30z"/>
<path d="M6105 5628 c-2 -7 -24 -77 -50 -156 -26 -79 -45 -146 -42 -148 7 -7
161 140 189 179 l20 28 -48 53 c-52 57 -62 64 -69 44z"/>
<path d="M6375 5596 c-33 -17 -62 -32 -65 -34 -3 -2 9 -17 27 -32 27 -24 37
-28 61 -21 42 13 92 40 92 52 0 12 -42 69 -49 68 -3 -1 -33 -16 -66 -33z"/>
<path d="M6188 5386 c-47 -50 -118 -111 -156 -136 l-69 -45 -62 -139 c-33 -77
-59 -141 -57 -143 5 -5 74 29 147 73 31 19 66 34 77 34 21 0 38 -31 28 -49
-16 -25 -257 -151 -290 -151 -8 0 -45 -60 -84 -132 -38 -73 -125 -225 -194
-338 -222 -366 -272 -467 -363 -725 -24 -66 -50 -124 -58 -129 -24 -16 -50 12
-43 46 l6 28 -226 0 c-207 0 -226 -1 -220 -17 4 -9 9 -65 13 -124 5 -98 4
-109 -12 -115 -39 -15 -49 7 -62 137 -6 68 -12 125 -12 127 -1 1 -14 2 -31 2
l-30 0 0 -242 c-1 -434 -19 -774 -66 -1253 -14 -137 -27 -329 -31 -426 l-6
-176 61 -17 c54 -15 72 -29 72 -56 0 -22 -39 -30 -78 -16 -22 8 -42 13 -45 10
-4 -4 7 -88 18 -131 3 -13 15 -23 32 -27 16 -3 80 -15 143 -27 117 -22 160
-39 160 -63 0 -34 -25 -36 -149 -10 -171 35 -167 37 -128 -61 l32 -80 93 -7
c114 -8 222 -26 239 -40 18 -15 16 -47 -3 -55 -9 -3 -44 -1 -78 5 -33 6 -91
14 -128 18 -83 8 -84 3 -25 -79 l42 -59 115 -4 c151 -6 184 -13 188 -43 5 -32
-14 -42 -68 -36 -99 11 -160 13 -165 5 -3 -4 5 -19 16 -34 l20 -26 895 0 c675
0 894 3 894 12 0 6 -5 40 -11 76 -10 56 -9 66 5 80 28 28 49 3 64 -74 8 -38
19 -75 24 -81 7 -9 39 -13 93 -13 120 0 119 -1 84 75 -35 75 -46 129 -30 149
24 28 48 6 71 -63 12 -37 31 -80 43 -95 l22 -27 65 26 c76 31 87 39 73 57 -6
7 -16 30 -23 51 -9 30 -9 41 1 53 22 27 53 13 67 -31 22 -67 29 -70 105 -36
l67 30 -3 48 c-2 45 0 48 24 51 22 3 29 -2 37 -27 6 -17 16 -31 22 -31 13 0
193 90 189 95 -2 1 -87 -1 -189 -5 -193 -9 -554 2 -712 20 -237 28 -376 58
-743 157 l-90 25 -130 -16 c-226 -28 -322 -20 -439 38 -61 30 -72 32 -107 24
-21 -6 -45 -8 -54 -4 -23 8 -19 53 5 61 26 8 25 17 -2 60 -18 27 -30 35 -54
35 -17 0 -37 7 -44 15 -17 21 -8 50 18 53 25 4 27 19 12 73 -6 23 -18 39 -30
42 -26 7 -36 33 -20 52 15 18 103 20 217 4 97 -13 123 -23 123 -48 0 -29 -29
-40 -80 -31 -25 4 -66 10 -92 14 -45 5 -48 4 -47 -17 0 -12 6 -37 13 -56 10
-29 20 -37 62 -50 41 -14 49 -20 49 -41 0 -18 -6 -26 -22 -28 -13 -2 -23 -7
-23 -12 0 -11 65 -67 100 -85 85 -44 231 -55 385 -30 50 8 107 15 128 15 l37
0 0 98 c0 119 24 221 75 324 47 93 81 138 105 138 37 0 34 -38 -10 -111 -73
-124 -93 -195 -94 -338 l-1 -123 60 -19 c33 -10 61 -19 63 -19 1 0 2 38 2 84
0 175 33 310 108 441 31 54 45 70 62 70 44 0 46 -27 7 -92 -59 -97 -87 -184
-99 -307 -6 -61 -8 -136 -4 -167 l7 -56 50 -11 c28 -7 56 -12 62 -12 9 0 12
37 13 128 1 131 20 257 52 353 17 49 22 54 48 54 36 0 36 -16 6 -127 -39 -144
-55 -400 -26 -428 5 -5 30 -11 57 -15 l47 -7 0 123 c0 184 25 331 57 343 9 4
23 0 31 -8 14 -13 13 -27 -1 -115 -17 -101 -23 -326 -9 -348 5 -8 130 -33 167
-33 3 0 2 42 -2 93 -6 95 4 179 32 274 16 55 40 73 63 49 14 -13 13 -27 -8
-117 -18 -81 -22 -119 -17 -188 7 -115 10 -121 58 -121 l40 0 -7 88 c-8 114
10 258 36 272 12 6 23 5 35 -4 17 -12 17 -19 5 -95 -12 -77 -9 -217 6 -256 4
-11 21 -15 56 -15 43 0 49 2 44 17 -11 29 -19 197 -12 247 8 49 27 67 54 50
12 -8 15 -36 17 -139 1 -72 7 -142 13 -158 12 -27 13 -28 89 -25 l78 3 -3 85
c-3 106 6 144 38 148 33 5 39 -13 33 -89 -3 -36 -3 -83 1 -103 l7 -36 62 0
c34 0 85 3 114 6 l52 7 -6 77 c-8 105 0 132 35 128 24 -3 27 -7 29 -48 2 -25
5 -69 9 -97 l5 -53 42 1 c23 0 62 4 87 7 l45 7 -3 82 c-4 77 -3 81 19 88 30
10 49 -17 49 -69 0 -92 7 -96 126 -75 51 9 63 15 66 31 2 12 11 26 21 32 15 9
22 6 38 -13 l20 -25 92 18 c223 42 670 161 932 248 l130 43 0 45 c0 41 2 45
25 45 17 0 29 -8 38 -27 15 -32 17 -32 61 -17 l31 11 0 78 c0 89 15 119 51 99
18 -9 19 -19 17 -117 l-3 -107 -74 -30 -73 -30 46 -42 47 -42 132 65 c290 143
707 370 777 424 25 19 25 20 24 172 -1 84 -6 174 -11 199 -6 28 -6 53 -1 63
12 22 45 20 57 -3 14 -26 31 -178 31 -278 0 -46 3 -83 8 -83 4 0 24 11 44 25
27 18 41 37 50 68 12 41 17 213 9 310 -3 35 0 51 10 58 21 13 27 11 46 -18 15
-22 18 -50 18 -170 0 -78 3 -143 6 -143 5 0 97 93 100 102 1 2 4 64 8 138 l6
135 27 3 c31 4 37 -9 41 -95 1 -29 5 -53 8 -53 14 0 39 82 48 159 7 55 7 107
0 163 -10 79 -13 86 -58 137 -83 96 -80 95 -436 102 -331 6 -372 12 -474 63
-26 14 -70 49 -97 78 l-49 54 -135 -27 c-403 -81 -857 -222 -1384 -431 -131
-52 -183 -68 -194 -61 -26 16 -25 31 1 56 19 17 24 29 20 50 -7 36 20 46 59
24 17 -9 35 -17 41 -17 7 0 73 24 147 53 74 30 185 71 245 92 61 21 115 42
120 48 16 15 -567 1 -745 -17 -508 -54 -1098 -194 -1593 -378 -103 -38 -194
-67 -203 -64 -20 8 -28 34 -15 50 6 7 38 23 72 35 53 20 59 25 53 44 -15 53
-144 284 -231 416 l-95 143 -37 -7 c-20 -4 -52 -8 -71 -9 -31 -1 -35 2 -35 24
0 20 8 28 43 40 23 8 42 17 42 20 -1 3 -14 21 -31 40 l-30 35 -92 0 c-87 0
-92 1 -95 22 -5 33 31 46 133 47 118 1 145 -7 145 -40 0 -32 59 -109 72 -96
14 14 -6 305 -33 487 -11 77 -22 141 -23 143 -2 2 -34 -2 -70 -9 -52 -9 -70
-8 -81 1 -33 28 -5 53 74 69 34 7 61 14 61 17 0 3 -5 25 -11 50 -13 50 1 47
-133 24 -64 -11 -86 -3 -86 31 0 24 26 34 106 44 75 8 83 13 77 48 l-5 28
-112 -3 c-108 -3 -111 -2 -114 19 -2 17 3 26 20 32 34 13 281 36 301 28 23 -9
21 -42 -4 -58 -16 -11 -19 -20 -14 -41 5 -21 14 -28 38 -30 27 -2 32 -7 32
-28 0 -16 -8 -28 -22 -35 -22 -9 -23 -17 -6 -77 2 -10 13 -18 23 -18 11 0 25
-10 31 -22 10 -18 8 -24 -11 -40 l-22 -18 21 -142 c24 -165 43 -427 40 -543
l-2 -80 55 -85 c68 -104 149 -250 194 -349 28 -60 37 -72 51 -66 10 4 110 38
223 75 l205 68 -136 3 c-147 4 -178 14 -158 50 9 17 23 19 164 19 l155 0 0 75
0 75 -144 0 c-119 0 -146 3 -157 16 -9 11 -10 20 -2 32 8 14 32 17 152 20
l141 3 0 44 0 45 -124 0 c-101 0 -126 3 -137 16 -9 11 -10 20 -2 32 8 14 33
18 126 22 64 3 119 9 123 12 3 4 3 34 -1 67 l-7 61 -59 0 c-46 0 -61 4 -66 16
-11 30 11 49 62 52 l47 3 -6 48 c-3 27 -27 122 -51 212 -25 90 -45 175 -45
188 l0 24 -139 -7 c-131 -6 -140 -6 -150 12 -7 14 -7 24 2 36 10 13 39 17 151
23 l138 6 14 33 c8 18 14 38 14 43 0 7 -58 12 -151 13 -127 3 -154 6 -162 19
-6 9 -7 24 -4 33 6 14 28 16 176 16 l169 0 23 68 c12 37 24 73 27 80 4 11 -15
13 -105 7 -132 -9 -155 -4 -151 33 3 31 -5 29 159 37 l126 7 12 40 c7 22 15
46 18 54 4 10 -16 14 -98 16 -92 3 -104 5 -107 22 -7 32 16 41 125 46 l106 5
13 45 c7 24 11 46 9 48 -2 2 -34 7 -70 10 -49 3 -68 9 -75 23 -18 33 13 49 99
49 l77 0 24 98 23 99 -78 119 c-43 65 -105 156 -137 201 -58 81 -58 81 -86 68
-29 -13 -229 -36 -347 -38 -64 -2 -70 0 -73 19 -2 11 3 25 10 31 7 6 94 19
193 28 99 10 184 21 188 25 4 4 -19 32 -53 63 -62 58 -256 218 -262 216 -2 -1
-42 -42 -90 -93z m511 -359 c8 -10 7 -18 -3 -32 -11 -16 -46 -23 -202 -41
-104 -13 -234 -26 -290 -30 -92 -6 -101 -5 -108 11 -15 39 14 48 256 76 276
31 331 34 347 16z m-65 -169 c19 -31 -15 -48 -150 -79 -186 -41 -310 -59 -468
-66 -126 -6 -140 -4 -152 12 -9 13 -10 23 -3 36 8 16 22 19 92 19 147 0 467
47 602 89 41 13 66 9 79 -11z m-256 -240 c20 -20 14 -48 -12 -58 -42 -15 -316
-58 -451 -70 -173 -15 -239 -11 -243 14 -6 29 25 46 82 46 85 0 344 30 471 54
150 29 139 28 153 14z m-210 -257 c24 -15 10 -54 -23 -63 -62 -16 -363 -59
-455 -65 -78 -5 -98 -3 -108 9 -16 20 -5 47 22 53 11 2 75 9 141 15 66 6 179
22 250 34 157 28 157 28 173 17z m-1323 -939 c31 -6 41 -12 43 -29 5 -35 -25
-43 -128 -35 -70 5 -95 11 -103 24 -8 12 -7 21 2 32 15 17 110 21 186 8z m994
-67 c12 -12 13 -19 5 -33 -9 -14 -28 -17 -115 -18 -84 -1 -118 -7 -178 -28
-88 -31 -76 -29 -95 -10 -35 34 19 68 155 99 80 18 205 13 228 -10z m-865
-100 c9 -24 -4 -43 -32 -49 -90 -19 -154 -22 -168 -9 -41 42 12 69 142 72 38
1 53 -3 58 -14z m2980 -772 c41 -43 45 -76 8 -81 -27 -4 -92 56 -92 85 0 46
37 44 84 -4z m-166 -67 c32 -28 43 -51 36 -70 -11 -30 -50 -18 -93 29 -22 24
-41 47 -41 49 0 3 7 12 16 20 17 18 41 10 82 -28z m2443 -233 c10 -11 15 -56
18 -151 5 -213 -9 -276 -57 -246 -21 13 -22 392 -1 405 20 12 25 11 40 -8z
m-223 -150 c11 -22 25 -303 16 -326 -7 -20 -53 -23 -59 -4 -10 27 -21 313 -13
330 5 9 17 17 28 17 11 0 23 -8 28 -17z m-4728 -42 c38 -7 52 -38 27 -59 -13
-11 -226 0 -247 13 -14 9 -12 52 3 59 14 6 166 -3 217 -13z m4549 -84 c12 -15
-5 -293 -20 -334 -10 -26 -44 -31 -56 -8 -12 21 13 323 27 341 15 18 34 18 49
1z m-4456 -96 c19 -15 20 -20 8 -40 -8 -12 -42 -14 -198 -12 -111 2 -193 7
-200 13 -19 16 -16 48 6 56 35 13 366 -1 384 -17z m4287 4 c9 -11 9 -42 0
-142 -15 -148 -22 -173 -49 -173 -34 0 -38 25 -24 168 10 106 17 140 30 150
22 16 28 15 43 -3z"/>
<path d="M6976 4659 c-2 -8 -27 -95 -55 -194 -28 -99 -89 -296 -136 -437 -47
-142 -85 -274 -85 -295 0 -20 18 -100 39 -177 64 -228 89 -380 107 -658 3 -54
9 -98 13 -98 4 0 193 47 421 104 761 191 1128 271 1535 336 110 18 208 35 218
39 13 4 -38 32 -177 95 -339 153 -700 354 -1019 568 -332 221 -539 393 -773
642 -52 54 -85 83 -88 75z"/>
<path d="M5030 3809 c-41 -4 -158 -10 -260 -13 -209 -6 -191 4 -167 -92 l12
-49 190 -3 c105 -2 213 0 241 3 l52 6 26 72 c14 40 26 75 26 80 0 8 -14 8
-120 -4z"/>
<path d="M4482 3733 c3 -66 4 -68 30 -71 20 -2 27 1 24 10 -3 7 -10 39 -16 71
-8 38 -16 57 -26 57 -12 0 -14 -13 -12 -67z"/>
<path d="M10220 3596 c30 -7 65 -18 77 -24 14 -8 30 -9 46 -3 27 11 94 0 155
-24 35 -14 45 -15 58 -4 12 10 27 10 79 0 45 -9 69 -10 83 -2 14 8 37 8 77 0
31 -6 66 -9 77 -7 21 3 21 3 -4 32 -34 40 -76 45 -418 44 -248 0 -278 -2 -230
-12z"/>
<path d="M9113 3204 c-3 -8 -3 -44 0 -78 7 -71 -1 -89 -34 -84 -27 4 -37 29
-38 106 l-1 54 -62 -7 c-77 -9 -78 -9 -78 -44 0 -60 -61 -66 -68 -7 -2 14 -10
26 -17 26 -32 0 -630 -117 -698 -136 -20 -6 -43 -48 -63 -115 -16 -54 -25 -63
-55 -54 -19 6 -21 12 -15 49 3 22 8 53 12 67 l6 27 -69 -17 c-37 -9 -73 -19
-80 -24 -12 -8 -69 -145 -62 -150 2 -2 60 3 129 11 87 10 257 15 555 17 l430
2 150 45 c83 25 164 49 182 53 l32 6 -5 117 c-5 100 -9 119 -26 135 -27 23
-116 24 -125 1z"/>
<path d="M9332 3078 c3 -48 8 -91 12 -96 6 -10 83 4 99 18 5 4 6 33 2 63 -8
60 -1 54 -104 95 -12 4 -13 -9 -9 -80z"/>
<path d="M9518 3045 c5 -26 27 -32 67 -16 18 7 15 10 -19 25 -51 21 -54 20
-48 -9z"/>
<path d="M7669 2928 l-76 -19 -21 -61 c-12 -34 -20 -63 -18 -65 2 -3 38 1 80
7 l75 13 19 56 c11 31 23 64 27 74 8 20 10 20 -86 -5z"/>
<path d="M7436 2871 c-23 -5 -32 -16 -48 -59 -11 -29 -18 -56 -15 -58 3 -3 26
-2 51 1 44 7 45 8 65 66 l20 59 -22 -1 c-12 -1 -35 -4 -51 -8z"/>
<path d="M7263 2829 c-49 -11 -57 -20 -70 -76 -12 -49 -8 -51 58 -33 30 9 38
16 48 51 7 23 15 47 18 55 6 16 5 16 -54 3z"/>
<path d="M7088 2783 c-15 -4 -56 -99 -46 -108 2 -3 17 -1 33 3 19 5 31 17 35
33 23 86 24 84 -22 72z"/>
<path d="M6898 2733 l-48 -14 0 -51 c0 -39 3 -49 14 -45 8 3 33 11 55 17 36 9
42 15 52 53 6 23 13 45 16 50 7 11 -37 7 -89 -10z"/>
<path d="M10504 1801 c-32 -22 -79 -58 -104 -81 -44 -41 -45 -41 -15 -35 46
10 105 48 160 104 60 62 42 67 -41 12z"/>
<path d="M10842 1800 c-103 -15 -137 -68 -62 -97 33 -13 42 -23 50 -53 23 -85
106 -100 218 -40 102 54 140 121 93 164 -33 30 -181 43 -299 26z"/>
<path d="M10609 1724 c-11 -14 -9 -15 16 -12 16 1 30 9 33 16 6 18 -33 15 -49
-4z"/>
<path d="M10413 1595 c-138 -31 -259 -116 -322 -226 -18 -33 -41 -98 -57 -166
-19 -83 -37 -131 -71 -190 -92 -160 -133 -263 -133 -332 l0 -21 401 0 401 0
-9 43 c-10 54 -10 124 0 211 8 64 8 68 -10 63 -139 -41 -242 -63 -256 -55 -18
10 -23 43 -7 53 5 3 67 22 137 41 182 50 283 100 283 141 0 19 -18 16 -64 -11
-88 -51 -310 -110 -368 -98 -19 4 -30 26 -22 47 7 16 9 17 122 34 91 14 213
61 273 105 104 77 119 217 33 298 -70 66 -207 92 -331 63z"/>
<path d="M10993 1498 c-31 -15 -44 -57 -28 -95 27 -64 117 -103 236 -103 82 0
99 6 99 33 0 27 -86 110 -147 141 -58 29 -129 40 -160 24z"/>
<path d="M9975 1444 c-67 -41 -166 -117 -208 -161 -34 -36 -45 -74 -53 -178
-4 -44 -13 -90 -21 -103 -39 -63 -101 22 -112 156 -6 71 -8 78 -33 90 -36 17
-77 6 -238 -65 -202 -90 -434 -178 -721 -275 l-269 -90 0 -37 c0 -20 9 -55 20
-79 l19 -42 348 2 c286 3 347 5 345 16 -15 72 -14 102 3 108 29 12 49 -10 63
-69 13 -52 17 -57 41 -57 15 0 30 2 33 5 3 3 -1 33 -9 65 -18 70 -13 90 21 90
26 0 36 -23 60 -132 l6 -28 200 0 c110 0 200 1 200 3 0 1 9 43 19 92 32 155
94 270 207 379 55 54 64 68 79 126 9 36 32 96 51 133 19 38 34 73 34 78 0 17
-25 9 -85 -27z"/>
<path d="M9173 1343 c-40 -13 -73 -29 -73 -34 0 -6 20 -31 44 -56 l44 -47 76
33 c42 19 76 36 76 39 0 8 -83 92 -90 91 -3 0 -38 -12 -77 -26z"/>
<path d="M8920 1263 c-47 -13 -87 -26 -89 -28 -8 -8 43 -77 75 -102 l34 -26
86 33 c46 18 83 36 82 39 -10 22 -85 110 -93 110 -5 0 -48 -12 -95 -26z"/>
<path d="M8631 1184 c-46 -12 -85 -25 -88 -27 -6 -7 53 -72 99 -109 l40 -31
85 27 c46 15 83 31 81 34 -2 4 -23 35 -48 69 -30 41 -52 62 -65 61 -11 0 -58
-11 -104 -24z"/>
<path d="M10981 1172 c-56 -28 -62 -48 -25 -81 41 -37 132 -71 190 -71 54 0
94 33 94 77 0 36 -7 46 -50 72 -46 27 -158 29 -209 3z"/>
<path d="M8355 1117 c-49 -11 -92 -22 -94 -24 -8 -6 81 -128 110 -151 l29 -24
98 33 c53 17 98 33 100 34 2 2 -17 22 -41 44 -25 23 -55 57 -68 76 -13 19 -28
34 -34 34 -5 -1 -50 -11 -100 -22z"/>
<path d="M8065 1058 c-55 -10 -102 -21 -104 -24 -8 -7 66 -107 114 -154 l45
-45 64 17 c34 9 77 23 95 30 l33 13 -41 49 c-22 27 -50 69 -63 93 -13 24 -27
43 -33 42 -5 0 -55 -10 -110 -21z"/>
<path d="M10798 1053 c-37 -40 -58 -87 -58 -129 0 -21 -5 -52 -12 -71 -15 -42
-6 -51 28 -24 15 11 33 21 41 21 11 0 13 5 8 18 -16 36 -16 80 -1 111 9 17 20
31 24 31 4 0 15 7 25 14 16 12 16 17 5 35 -17 28 -29 26 -60 -6z"/>
<path d="M7810 1019 c-82 -13 -100 -18 -100 -29 0 -23 83 -140 129 -183 l49
-46 53 15 c29 9 63 20 77 25 l24 9 -46 51 c-26 29 -63 78 -83 110 -20 33 -39
58 -42 58 -3 -1 -31 -5 -61 -10z"/>
<path d="M10898 969 c-52 -20 -47 -69 11 -98 76 -39 127 -36 151 9 18 34 -7
68 -63 85 -57 17 -62 17 -99 4z"/>
<path d="M9805 888 c-34 -74 -62 -186 -52 -210 3 -7 6 -2 6 12 1 41 40 168 66
221 14 27 23 49 20 49 -4 0 -21 -33 -40 -72z"/>
<path d="M7568 919 c-55 -28 -57 -30 -47 -57 18 -47 56 -106 91 -139 l34 -33
74 21 c41 12 77 23 79 25 2 2 -18 27 -44 56 -26 29 -61 77 -77 106 -17 28 -35
52 -41 52 -7 -1 -38 -14 -69 -31z"/>
<path d="M7368 822 c-43 -19 -78 -40 -78 -46 0 -6 13 -33 28 -61 l27 -50 94
-3 c52 -1 101 0 108 2 10 4 3 19 -23 53 -21 27 -46 69 -58 94 l-21 46 -77 -35z"/>
<path d="M11635 819 c-11 -17 1 -21 15 -4 8 9 8 15 2 15 -6 0 -14 -5 -17 -11z"/>
<path d="M10823 783 c-12 -2 -27 -11 -33 -19 -39 -46 115 -86 166 -43 19 16
18 36 -3 48 -23 12 -101 20 -130 14z"/>
<path d="M8018 727 c-91 -29 -170 -55 -174 -59 -4 -5 76 -8 177 -8 131 0 189
4 197 12 24 24 8 109 -21 107 -7 0 -87 -24 -179 -52z"/>
<path d="M7118 711 c-48 -21 -91 -40 -95 -44 -3 -4 48 -7 115 -7 67 0 122 2
122 5 0 13 -41 85 -48 84 -4 0 -46 -17 -94 -38z"/>
</g>
</svg>
